<?xml version="1.0" encoding="utf-8"?>
<!-- Generator: Adobe Illustrator 27.5.0, SVG Export Plug-In . SVG Version: 6.00 Build 0)  -->
<svg version="1.1" xmlns="http://www.w3.org/2000/svg" xmlns:xlink="http://www.w3.org/1999/xlink" x="0px" y="0px"
	 viewBox="0 0 750 500" style="enable-background:new 0 0 750 500;" xml:space="preserve">
<g id="Background_Complete">
	<g>
		<g>
			
				<ellipse transform="matrix(0.0399 -0.9992 0.9992 0.0399 474.9456 678.9465)" style="fill:#EBEBEB;" cx="590.788" cy="92.317" rx="37.008" ry="31.412"/>
		</g>
		<g>
			<path style="fill:#E0E0E0;" d="M612.641,93.347c-0.894,18.608-13.302,33.405-28.612,35.209c1.616,0.392,3.28,0.64,4.984,0.727
				c17.326,0.886,32.166-14.945,33.147-35.361c0.98-20.415-12.27-37.683-29.596-38.57c-1.534-0.078-3.048-0.023-4.535,0.152
				C602.838,59.093,613.525,74.94,612.641,93.347z"/>
		</g>
	</g>
	<g>
		<g>
			
				<ellipse transform="matrix(0.9952 -0.0975 0.0975 0.9952 -40.9042 37.7287)" style="fill:#EBEBEB;" cx="365.684" cy="437.5" rx="37.001" ry="17.951"/>
		</g>
		<g>
			<path style="fill:#E0E0E0;" d="M365.981,450.025c-18.557,1.461-34.021-4.024-36.74-12.532c-0.292,0.96-0.438,1.931-0.421,2.909
				c0.166,9.938,16.806,16.695,37.165,15.092c20.36-1.602,36.73-10.957,36.565-20.895c-0.015-0.88-0.161-1.734-0.425-2.56
				C399.45,440.832,384.338,448.58,365.981,450.025z"/>
		</g>
	</g>
	<g>
		<g>
			
				<ellipse transform="matrix(0.7666 -0.6422 0.6422 0.7666 -222.9325 144.2935)" style="fill:#EBEBEB;" cx="87.001" cy="378.778" rx="24.446" ry="28.802"/>
		</g>
		<g>
			<path style="fill:#E0E0E0;" d="M74.029,389.804c9.399,11.039,24.08,14.254,34.37,8.085c-0.809,1.01-1.716,1.954-2.725,2.818
				c-10.253,8.785-26.924,6.089-37.236-6.022c-10.312-12.111-10.361-29.05-0.108-37.836c0.908-0.778,1.867-1.464,2.866-2.063
				C63.778,364.04,64.73,378.884,74.029,389.804z"/>
		</g>
	</g>
	<g>
		<g>
			
				<ellipse transform="matrix(0.0147 -0.9999 0.9999 0.0147 -197.6613 307.7454)" style="fill:#EBEBEB;" cx="57.323" cy="254.169" rx="18.784" ry="12.84"/>
		</g>
		<g>
			<path style="fill:#E0E0E0;" d="M48.386,253.861c-0.204,9.453,4.401,17.414,10.586,18.908c-0.67,0.137-1.356,0.199-2.053,0.179
				c-7.089-0.209-12.653-8.786-12.43-19.157c0.224-10.371,6.152-18.61,13.241-18.401c0.628,0.019,1.243,0.104,1.844,0.249
				C53.427,236.893,48.588,244.51,48.386,253.861z"/>
		</g>
	</g>
	<g>
		<g>
			<path style="fill:#EBEBEB;" d="M659.612,338.387c-5.377,10.147-2.742,22.05,5.885,26.587c8.627,4.537,19.979-0.011,25.356-10.158
				c5.377-10.147,2.742-22.05-5.885-26.587C676.341,323.693,664.989,328.24,659.612,338.387z"/>
		</g>
		<g>
			<path style="fill:#E0E0E0;" d="M686.088,352.367c4.901-9.249,3.145-19.955-3.737-25.214c0.893,0.274,1.768,0.631,2.617,1.077
				c8.627,4.537,11.262,16.44,5.885,26.587c-5.377,10.147-16.729,14.695-25.356,10.158c-0.764-0.402-1.48-0.862-2.148-1.373
				C671.535,366.111,681.24,361.516,686.088,352.367z"/>
		</g>
	</g>
	<g>
		<g>
			
				<ellipse transform="matrix(0.331 -0.9436 0.9436 0.331 45.201 231.4379)" style="fill:#EBEBEB;" cx="185.82" cy="83.841" rx="28.802" ry="24.446"/>
		</g>
		<g>
			<path style="fill:#E0E0E0;" d="M167.899,77.395c-4.689,13.719,0.046,27.983,10.606,33.677c-1.281-0.18-2.556-0.478-3.814-0.903
				c-12.79-4.327-18.987-20.036-13.843-35.087c5.144-15.052,19.682-23.746,32.472-19.42c1.132,0.383,2.212,0.857,3.238,1.41
				C184.812,55.423,172.537,63.824,167.899,77.395z"/>
		</g>
	</g>
	<g>
		<g>
			<path style="fill:#E0E0E0;" d="M519.513,82.525l4.204,2.503c0.545,0.325,0.501,1.131-0.077,1.42l-4.462,2.232
				c-0.14,0.07-0.258,0.178-0.339,0.312l-2.606,4.254c-0.338,0.551-1.145,0.526-1.421-0.045l-2.134-4.403
				c-0.067-0.138-0.172-0.253-0.305-0.332l-4.204-2.503c-0.545-0.325-0.501-1.13,0.077-1.42l4.462-2.232
				c0.14-0.07,0.258-0.178,0.339-0.311l2.605-4.254c0.338-0.552,1.145-0.526,1.422,0.044l2.134,4.403
				C519.276,82.332,519.381,82.447,519.513,82.525z"/>
		</g>
	</g>
	<g>
		<g>
			<path style="fill:#E0E0E0;" d="M112.622,444.408l4.204,2.503c0.545,0.324,0.501,1.131-0.077,1.42l-4.462,2.232
				c-0.14,0.07-0.258,0.178-0.339,0.312l-2.606,4.254c-0.338,0.552-1.145,0.526-1.421-0.045l-2.134-4.403
				c-0.067-0.138-0.173-0.253-0.305-0.332l-4.204-2.503c-0.545-0.324-0.501-1.13,0.077-1.42l4.462-2.232
				c0.14-0.07,0.258-0.178,0.339-0.311l2.605-4.254c0.338-0.552,1.145-0.526,1.422,0.044l2.134,4.403
				C112.385,444.215,112.49,444.33,112.622,444.408z"/>
		</g>
	</g>
	<g>
		<g>
			<path style="fill:#E0E0E0;" d="M483.764,441.441l4.204,2.503c0.545,0.324,0.501,1.131-0.077,1.42l-4.462,2.232
				c-0.14,0.07-0.258,0.178-0.339,0.312l-2.606,4.254c-0.338,0.551-1.145,0.526-1.421-0.045l-2.134-4.403
				c-0.067-0.138-0.173-0.253-0.305-0.332l-4.204-2.503c-0.545-0.324-0.501-1.13,0.078-1.42l4.462-2.232
				c0.14-0.07,0.258-0.178,0.339-0.311l2.605-4.254c0.338-0.552,1.145-0.526,1.422,0.044l2.134,4.403
				C483.526,441.247,483.632,441.363,483.764,441.441z"/>
		</g>
	</g>
	<g>
		<g>
			<path style="fill:#E0E0E0;" d="M666.919,437.832l4.204,2.503c0.545,0.324,0.501,1.131-0.077,1.42l-4.462,2.232
				c-0.14,0.07-0.258,0.178-0.339,0.312l-2.606,4.254c-0.338,0.552-1.145,0.526-1.421-0.045l-2.134-4.403
				c-0.067-0.138-0.172-0.253-0.305-0.332l-4.204-2.503c-0.545-0.324-0.501-1.13,0.078-1.42l4.462-2.232
				c0.14-0.07,0.258-0.178,0.339-0.311l2.605-4.254c0.338-0.552,1.145-0.526,1.422,0.044l2.134,4.403
				C666.682,437.638,666.787,437.754,666.919,437.832z"/>
		</g>
	</g>
	<g>
		<g>
			<path style="fill:#E0E0E0;" d="M218.21,130.972l4.204,2.503c0.545,0.324,0.501,1.131-0.077,1.42l-4.462,2.232
				c-0.14,0.07-0.258,0.178-0.339,0.312l-2.606,4.254c-0.338,0.551-1.145,0.526-1.421-0.045l-2.134-4.403
				c-0.067-0.138-0.172-0.253-0.305-0.332l-4.204-2.503c-0.545-0.325-0.501-1.13,0.077-1.42l4.462-2.232
				c0.14-0.07,0.258-0.178,0.339-0.311l2.605-4.254c0.338-0.552,1.145-0.526,1.422,0.044l2.134,4.403
				C217.972,130.778,218.078,130.893,218.21,130.972z"/>
		</g>
	</g>
	<g>
		<g>
			<path style="fill:#E0E0E0;" d="M245.056,46.531l4.204,2.503c0.545,0.325,0.501,1.131-0.077,1.42l-4.462,2.232
				c-0.14,0.07-0.258,0.178-0.339,0.312l-2.606,4.254c-0.338,0.552-1.145,0.526-1.421-0.045l-2.134-4.403
				c-0.067-0.138-0.173-0.253-0.305-0.332l-4.204-2.503c-0.545-0.325-0.501-1.13,0.077-1.42l4.462-2.232
				c0.14-0.07,0.258-0.178,0.339-0.311l2.605-4.254c0.338-0.552,1.145-0.526,1.422,0.044l2.134,4.403
				C244.819,46.337,244.925,46.453,245.056,46.531z"/>
		</g>
	</g>
	<g>
		<g>
			<path style="fill:#E0E0E0;" d="M108.881,83.322l2.133,1.27c0.277,0.165,0.254,0.574-0.039,0.72l-2.264,1.132
				c-0.071,0.035-0.131,0.09-0.172,0.158l-1.322,2.159c-0.171,0.28-0.581,0.267-0.721-0.023l-1.083-2.234
				c-0.034-0.07-0.088-0.128-0.155-0.168l-2.133-1.27c-0.276-0.165-0.254-0.574,0.039-0.721l2.264-1.132
				c0.071-0.035,0.131-0.09,0.172-0.158l1.322-2.159c0.172-0.28,0.581-0.267,0.721,0.022l1.083,2.234
				C108.76,83.224,108.814,83.282,108.881,83.322z"/>
		</g>
	</g>
	<g>
		<g>
			<path style="fill:#E0E0E0;" d="M346.689,71.005l2.133,1.27c0.277,0.165,0.254,0.574-0.039,0.72l-2.264,1.132
				c-0.071,0.035-0.131,0.09-0.172,0.158l-1.322,2.159c-0.171,0.28-0.581,0.267-0.721-0.023l-1.083-2.234
				c-0.034-0.07-0.087-0.128-0.155-0.168l-2.133-1.27c-0.276-0.165-0.254-0.574,0.039-0.721l2.264-1.132
				c0.071-0.035,0.131-0.09,0.172-0.158l1.322-2.159c0.172-0.28,0.581-0.267,0.721,0.022l1.083,2.234
				C346.569,70.907,346.622,70.965,346.689,71.005z"/>
		</g>
	</g>
	<g>
		<g>
			<path style="fill:#E0E0E0;" d="M544.515,56.949l2.133,1.27c0.276,0.165,0.254,0.574-0.039,0.721l-2.264,1.132
				c-0.071,0.035-0.131,0.09-0.172,0.158l-1.322,2.159c-0.171,0.28-0.581,0.267-0.721-0.023l-1.083-2.234
				c-0.034-0.07-0.087-0.128-0.155-0.168l-2.133-1.27c-0.277-0.165-0.254-0.574,0.039-0.721l2.264-1.132
				c0.071-0.035,0.131-0.09,0.172-0.158l1.322-2.159c0.172-0.28,0.581-0.267,0.721,0.022l1.083,2.234
				C544.394,56.851,544.448,56.909,544.515,56.949z"/>
		</g>
	</g>
	<g>
		<g>
			<path style="fill:#E0E0E0;" d="M681.13,63.899l2.133,1.27c0.276,0.165,0.254,0.574-0.039,0.721l-2.264,1.132
				c-0.071,0.035-0.131,0.09-0.172,0.158l-1.322,2.159c-0.171,0.28-0.581,0.267-0.721-0.023l-1.083-2.234
				c-0.034-0.07-0.087-0.128-0.155-0.168l-2.133-1.27c-0.276-0.165-0.254-0.574,0.039-0.72l2.264-1.132
				c0.071-0.035,0.131-0.09,0.172-0.158l1.322-2.159c0.172-0.28,0.581-0.267,0.721,0.023l1.083,2.234
				C681.01,63.801,681.063,63.859,681.13,63.899z"/>
		</g>
	</g>
	<g>
		<g>
			<path style="fill:#E0E0E0;" d="M436.935,462.833l2.503,1.461c0.325,0.189,0.303,0.667-0.038,0.842l-2.632,1.345
				c-0.083,0.042-0.152,0.107-0.2,0.186l-1.522,2.534c-0.197,0.328-0.676,0.318-0.842-0.019l-1.287-2.598
				c-0.04-0.081-0.103-0.149-0.182-0.195l-2.503-1.461c-0.325-0.189-0.303-0.667,0.039-0.842l2.632-1.345
				c0.082-0.042,0.152-0.107,0.199-0.186l1.522-2.534c0.198-0.329,0.675-0.318,0.842,0.019l1.287,2.597
				C436.793,462.72,436.856,462.787,436.935,462.833z"/>
		</g>
	</g>
	<g>
		<g>
			<path style="fill:#E0E0E0;" d="M698.435,281.561l2.503,1.461c0.324,0.189,0.303,0.667-0.038,0.842l-2.632,1.345
				c-0.083,0.042-0.152,0.107-0.199,0.186l-1.522,2.534c-0.197,0.328-0.675,0.318-0.842-0.019l-1.287-2.597
				c-0.04-0.081-0.103-0.149-0.182-0.195l-2.503-1.461c-0.325-0.189-0.303-0.667,0.039-0.842l2.632-1.345
				c0.082-0.042,0.152-0.107,0.199-0.186l1.522-2.534c0.198-0.329,0.676-0.318,0.843,0.019l1.287,2.597
				C698.293,281.448,698.356,281.516,698.435,281.561z"/>
		</g>
	</g>
	<g>
		<g>
			<path style="fill:#E0E0E0;" d="M53.05,303.815l2.014,1.199c0.261,0.155,0.24,0.542-0.037,0.68l-2.137,1.069
				c-0.067,0.034-0.124,0.085-0.163,0.149l-1.248,2.038c-0.162,0.264-0.548,0.252-0.681-0.021l-1.022-2.109
				c-0.032-0.066-0.083-0.121-0.146-0.159l-2.014-1.199c-0.261-0.155-0.24-0.541,0.037-0.68l2.137-1.069
				c0.067-0.034,0.123-0.085,0.162-0.149l1.248-2.038c0.162-0.264,0.548-0.252,0.681,0.021l1.022,2.109
				C52.936,303.723,52.986,303.778,53.05,303.815z"/>
		</g>
	</g>
	<g>
		<g>
			<path style="fill:#E0E0E0;" d="M265.69,452.523l2.014,1.199c0.261,0.155,0.24,0.542-0.037,0.68l-2.137,1.069
				c-0.067,0.033-0.123,0.085-0.162,0.149l-1.248,2.038c-0.162,0.264-0.548,0.252-0.681-0.021l-1.022-2.109
				c-0.032-0.066-0.083-0.121-0.146-0.159l-2.014-1.199c-0.261-0.155-0.24-0.541,0.037-0.68l2.137-1.069
				c0.067-0.034,0.123-0.085,0.163-0.149l1.248-2.038c0.162-0.264,0.548-0.252,0.681,0.021l1.022,2.109
				C265.576,452.43,265.627,452.485,265.69,452.523z"/>
		</g>
	</g>
	<g>
		<g>
			<path style="fill:#E0E0E0;" d="M649.079,403.604l2.014,1.199c0.261,0.156,0.24,0.542-0.037,0.68l-2.137,1.069
				c-0.067,0.034-0.124,0.085-0.163,0.149l-1.248,2.038c-0.162,0.264-0.548,0.252-0.681-0.021l-1.022-2.109
				c-0.032-0.066-0.083-0.121-0.146-0.159l-2.014-1.199c-0.261-0.155-0.24-0.542,0.037-0.68l2.137-1.069
				c0.067-0.034,0.123-0.085,0.162-0.149l1.248-2.038c0.162-0.264,0.548-0.252,0.681,0.021l1.022,2.109
				C648.966,403.511,649.016,403.566,649.079,403.604z"/>
		</g>
	</g>
	<g>
		<g>
			<path style="fill:#E0E0E0;" d="M606.54,451.099l2.014,1.199c0.261,0.155,0.24,0.542-0.037,0.68l-2.137,1.069
				c-0.067,0.034-0.124,0.085-0.163,0.149l-1.248,2.038c-0.162,0.264-0.548,0.252-0.681-0.021l-1.022-2.109
				c-0.032-0.066-0.083-0.121-0.146-0.159l-2.014-1.199c-0.261-0.155-0.24-0.541,0.037-0.68l2.137-1.069
				c0.067-0.034,0.123-0.085,0.163-0.149l1.248-2.038c0.162-0.264,0.548-0.252,0.681,0.021l1.022,2.109
				C606.427,451.007,606.477,451.062,606.54,451.099z"/>
		</g>
	</g>
	<g>
		<g>
			<path style="fill:#E0E0E0;" d="M649.547,145.167l2.181,1.299c0.283,0.168,0.26,0.587-0.04,0.737l-2.315,1.158
				c-0.073,0.036-0.134,0.092-0.176,0.162l-1.352,2.208c-0.175,0.286-0.594,0.273-0.738-0.023L646,148.422
				c-0.035-0.072-0.09-0.131-0.158-0.172l-2.182-1.299c-0.283-0.168-0.26-0.587,0.04-0.737l2.315-1.158
				c0.073-0.036,0.134-0.092,0.176-0.161l1.352-2.208c0.176-0.286,0.594-0.273,0.738,0.023l1.107,2.285
				C649.424,145.066,649.479,145.126,649.547,145.167z"/>
		</g>
	</g>
</g>
<g id="Background_Simple" style="display:none;">
	<g style="display:inline;">
		<path style="fill:#F5F5F5;" d="M484.944,77.072l-0.876,1.869c-7.383,15.76-5.804,34.319,4.638,48.044
			c1.342,1.764,2.812,3.432,4.404,4.984c11.459,11.171,28.854,15.949,44.598,12.25c9.259-2.176,18.316-7.09,27.695-5.766
			c12.207,1.722,20.159,13.148,26.621,23.546c6.462,10.398,14.45,21.811,26.665,23.48c7.65,1.045,15.403-2.165,21.629-6.803
			c16.483-12.281,23.837-34.357,21.352-54.554c-2.484-20.197-13.671-38.478-28.042-52.827
			c-20.132-20.101-47.68-33.625-76.363-33.683C528.582,37.552,499.302,52.194,484.944,77.072z"/>
	</g>
	<g style="display:inline;">
		<path style="fill:#F5F5F5;" d="M152.753,463.322l1.819-0.975c15.338-8.223,25.164-24.047,24.994-41.291
			c-0.022-2.217-0.203-4.433-0.552-6.628c-2.511-15.805-13.603-30.032-28.436-36.475c-8.724-3.789-18.922-5.262-25.651-11.929
			c-8.758-8.677-8.305-22.59-7.272-34.788c1.033-12.199,1.45-26.123-7.346-34.761c-5.509-5.41-13.643-7.47-21.407-7.472
			c-20.555-0.004-39.645,13.301-49.723,30.979C29.1,337.66,27.143,359.003,30.09,379.096c4.128,28.148,18.132,55.455,41.095,72.644
			C94.147,468.929,126.373,474.688,152.753,463.322z"/>
	</g>
</g>
<g id="Stars">
	<g>
		<g>
			<g>
				<path style="fill:#FF725E;" d="M579.762,183.212l1.04,0.644c0.135,0.083,0.13,0.28-0.008,0.346l-1.066,0.51
					c-0.033,0.016-0.061,0.042-0.08,0.074l-0.6,1.018c-0.078,0.132-0.274,0.12-0.345-0.022l-0.552-1.091
					c-0.017-0.034-0.044-0.063-0.076-0.083l-1.04-0.644c-0.135-0.083-0.13-0.28,0.008-0.346l1.066-0.51
					c0.033-0.016,0.061-0.042,0.08-0.073l0.6-1.018c0.078-0.132,0.274-0.12,0.345,0.022l0.552,1.091
					C579.703,183.163,579.729,183.192,579.762,183.212z"/>
			</g>
		</g>
		<g>
			<g>
				<path style="fill:#FF725E;" d="M580.579,334.374l1.04,0.644c0.135,0.083,0.13,0.28-0.008,0.346l-1.066,0.51
					c-0.034,0.016-0.061,0.042-0.08,0.073l-0.6,1.018c-0.078,0.132-0.274,0.12-0.345-0.022l-0.552-1.091
					c-0.017-0.034-0.044-0.063-0.076-0.083l-1.04-0.644c-0.135-0.084-0.13-0.28,0.008-0.346l1.066-0.51
					c0.033-0.016,0.061-0.042,0.08-0.073l0.6-1.018c0.078-0.132,0.274-0.12,0.346,0.022l0.552,1.091
					C580.52,334.325,580.546,334.353,580.579,334.374z"/>
			</g>
		</g>
		<g>
			<g>
				<path style="fill:#FF725E;" d="M622.106,265.105l2.012,1.198c0.261,0.155,0.24,0.541-0.037,0.68l-2.135,1.068
					c-0.067,0.033-0.124,0.085-0.163,0.149l-1.247,2.036c-0.162,0.264-0.548,0.252-0.68-0.021l-1.021-2.107
					c-0.032-0.066-0.083-0.121-0.146-0.159l-2.012-1.198c-0.261-0.155-0.24-0.541,0.037-0.68l2.135-1.068
					c0.067-0.034,0.123-0.085,0.162-0.149l1.247-2.036c0.162-0.264,0.548-0.252,0.68,0.021l1.021,2.107
					C621.993,265.012,622.043,265.067,622.106,265.105z"/>
			</g>
		</g>
		<g>
			<g>
				<path style="fill:#FF725E;" d="M568.605,194.526l2.024,1.253c0.262,0.162,0.254,0.545-0.015,0.673l-2.075,0.993
					c-0.065,0.031-0.119,0.081-0.156,0.143l-1.167,1.982c-0.151,0.257-0.533,0.233-0.672-0.043l-1.075-2.124
					c-0.034-0.066-0.085-0.123-0.149-0.162l-2.024-1.253c-0.262-0.162-0.254-0.545,0.015-0.673l2.075-0.993
					c0.065-0.031,0.119-0.081,0.156-0.143l1.167-1.982c0.151-0.257,0.533-0.233,0.672,0.042l1.075,2.124
					C568.49,194.43,568.541,194.486,568.605,194.526z"/>
			</g>
		</g>
		<g>
			<g>
				<path style="fill:#FF725E;" d="M93.523,253.348l1.528,0.974c0.198,0.126,0.188,0.417-0.018,0.512l-1.589,0.735
					c-0.05,0.023-0.092,0.06-0.12,0.107l-0.909,1.497c-0.118,0.194-0.408,0.172-0.511-0.039l-0.796-1.628
					c-0.025-0.051-0.064-0.094-0.112-0.125l-1.528-0.974c-0.198-0.126-0.188-0.417,0.018-0.512l1.589-0.735
					c0.05-0.023,0.091-0.06,0.12-0.107l0.909-1.497c0.118-0.194,0.408-0.172,0.511,0.039l0.796,1.628
					C93.436,253.274,93.475,253.317,93.523,253.348z"/>
			</g>
		</g>
		<g>
			<g>
				<path style="fill:#FF725E;" d="M126.645,287.953l1.478,0.846c0.192,0.11,0.195,0.383,0.006,0.482l-1.459,0.761
					c-0.046,0.024-0.083,0.061-0.108,0.106l-0.786,1.445c-0.102,0.187-0.375,0.18-0.482-0.014l-0.82-1.492
					c-0.026-0.047-0.064-0.086-0.11-0.112l-1.478-0.846c-0.192-0.11-0.195-0.383-0.006-0.482l1.459-0.761
					c0.046-0.024,0.083-0.061,0.108-0.106l0.786-1.445c0.102-0.188,0.375-0.179,0.482,0.014l0.82,1.492
					C126.56,287.888,126.599,287.927,126.645,287.953z"/>
			</g>
		</g>
		<g>
			<g>
				<path style="fill:#FF725E;" d="M170.942,173.31l1.478,0.846c0.191,0.11,0.195,0.383,0.006,0.482l-1.459,0.761
					c-0.046,0.024-0.083,0.061-0.108,0.106l-0.786,1.445c-0.102,0.187-0.375,0.18-0.482-0.014l-0.82-1.492
					c-0.026-0.047-0.064-0.086-0.11-0.112l-1.478-0.846c-0.192-0.11-0.195-0.383-0.006-0.482l1.459-0.761
					c0.046-0.024,0.083-0.061,0.108-0.106l0.786-1.445c0.102-0.188,0.375-0.179,0.482,0.014l0.82,1.492
					C170.858,173.244,170.896,173.283,170.942,173.31z"/>
			</g>
		</g>
		<g>
			<g>
				<path style="fill:#FF725E;" d="M285.883,149.013l1.478,0.846c0.192,0.11,0.195,0.383,0.006,0.482l-1.459,0.761
					c-0.046,0.024-0.083,0.061-0.108,0.106l-0.786,1.445c-0.102,0.187-0.375,0.18-0.482-0.014l-0.82-1.492
					c-0.026-0.047-0.064-0.086-0.111-0.112l-1.478-0.846c-0.192-0.11-0.195-0.383-0.006-0.482l1.459-0.761
					c0.046-0.024,0.083-0.061,0.108-0.106l0.786-1.445c0.102-0.188,0.375-0.18,0.482,0.014l0.82,1.492
					C285.799,148.947,285.837,148.986,285.883,149.013z"/>
			</g>
		</g>
		<g>
			<g>
				<path style="fill:#FF725E;" d="M115.838,293.52l2.934,1.68c0.381,0.218,0.387,0.761,0.012,0.957l-2.897,1.511
					c-0.091,0.047-0.165,0.12-0.214,0.211l-1.56,2.87c-0.202,0.372-0.745,0.357-0.956-0.028l-1.629-2.963
					c-0.051-0.093-0.127-0.17-0.219-0.223l-2.934-1.68c-0.381-0.218-0.387-0.761-0.011-0.957l2.897-1.511
					c0.091-0.047,0.165-0.12,0.214-0.21l1.56-2.87c0.202-0.372,0.745-0.356,0.957,0.028l1.629,2.963
					C115.67,293.39,115.746,293.467,115.838,293.52z"/>
			</g>
		</g>
		<g>
			<g>
				<path style="fill:#FF725E;" d="M306.608,133.656l2.934,1.68c0.381,0.218,0.387,0.761,0.012,0.957l-2.897,1.511
					c-0.091,0.047-0.165,0.12-0.214,0.211l-1.56,2.87c-0.202,0.372-0.745,0.356-0.956-0.028l-1.629-2.963
					c-0.051-0.093-0.127-0.17-0.219-0.223l-2.934-1.68c-0.381-0.218-0.387-0.761-0.011-0.957l2.897-1.511
					c0.091-0.047,0.165-0.12,0.214-0.21l1.56-2.87c0.203-0.372,0.745-0.357,0.957,0.027l1.629,2.963
					C306.44,133.526,306.516,133.603,306.608,133.656z"/>
			</g>
		</g>
		<g>
			<g>
				<path style="fill:#FF725E;" d="M264.68,418.996l2.934,1.68c0.381,0.218,0.387,0.761,0.012,0.957l-2.897,1.511
					c-0.091,0.047-0.165,0.12-0.214,0.211l-1.56,2.87c-0.202,0.372-0.745,0.357-0.956-0.028l-1.629-2.963
					c-0.051-0.093-0.127-0.17-0.219-0.223l-2.934-1.68c-0.38-0.218-0.387-0.761-0.011-0.957l2.897-1.511
					c0.091-0.047,0.165-0.12,0.214-0.21l1.56-2.87c0.203-0.372,0.745-0.357,0.957,0.027l1.629,2.963
					C264.512,418.866,264.588,418.944,264.68,418.996z"/>
			</g>
		</g>
		<g>
			<g>
				<path style="fill:#FF725E;" d="M537.668,366.865l2.934,1.68c0.38,0.218,0.387,0.761,0.011,0.957l-2.897,1.511
					c-0.091,0.047-0.165,0.12-0.214,0.21l-1.56,2.87c-0.202,0.372-0.745,0.356-0.956-0.028l-1.629-2.963
					c-0.051-0.093-0.127-0.17-0.219-0.223l-2.935-1.68c-0.38-0.218-0.387-0.761-0.011-0.957l2.897-1.511
					c0.091-0.047,0.165-0.12,0.214-0.21l1.56-2.87c0.203-0.372,0.745-0.357,0.957,0.027l1.629,2.963
					C537.5,366.735,537.576,366.813,537.668,366.865z"/>
			</g>
		</g>
		<g>
			<g>
				<path style="fill:#FF725E;" d="M497.321,149.694l1.91,1.094c0.248,0.142,0.252,0.495,0.008,0.623l-1.886,0.984
					c-0.059,0.031-0.108,0.078-0.139,0.137l-1.016,1.869c-0.132,0.242-0.485,0.232-0.623-0.018l-1.061-1.929
					c-0.033-0.06-0.083-0.111-0.143-0.145l-1.911-1.094c-0.248-0.142-0.252-0.495-0.007-0.623l1.886-0.984
					c0.059-0.031,0.107-0.078,0.139-0.137l1.016-1.869c0.132-0.243,0.485-0.232,0.623,0.018l1.061,1.929
					C497.211,149.61,497.261,149.66,497.321,149.694z"/>
			</g>
		</g>
	</g>
</g>
<g id="Portals">
	<g>
		<g>
			
				<ellipse transform="matrix(0.9552 -0.296 0.296 0.9552 -14.7554 87.7333)" style="fill:#263238;" cx="282.343" cy="92.593" rx="22.719" ry="11.583"/>
		</g>
		<g>
			<path style="fill:#455A64;" d="M279.527,85.024c10.877-3.524,21.352-2.387,24.783,2.397c-0.026-0.624-0.143-1.236-0.358-1.827
				c-2.192-6.016-13.644-7.759-25.578-3.893s-19.831,11.876-17.639,17.892c0.194,0.533,0.462,1.031,0.795,1.496
				C261.29,95.364,268.767,88.509,279.527,85.024z"/>
		</g>
	</g>
	<g>
		<g>
			
				<ellipse transform="matrix(0.7309 -0.6825 0.6825 0.7309 -127.8972 497.5715)" style="fill:#263238;" cx="566.963" cy="410.957" rx="42.827" ry="27.512"/>
		</g>
		<g>
			<path style="fill:#455A64;" d="M580.155,424.853c-15.739,14.733-35.766,19.462-47.066,11.798
				c0.718,1.286,1.585,2.484,2.608,3.573c10.403,11.075,32.834,6.95,50.101-9.214c17.268-16.164,22.833-38.246,12.43-49.321
				c-0.921-0.981-1.938-1.84-3.036-2.584C601.777,390.896,595.724,410.279,580.155,424.853z"/>
		</g>
	</g>
	<g>
		<g>
			
				<ellipse transform="matrix(0.1524 -0.9883 0.9883 0.1524 217.5287 526.1252)" style="fill:#263238;" cx="415.508" cy="136.238" rx="22.035" ry="57.531"/>
		</g>
		<g>
			<path style="fill:#455A64;" d="M419.338,121.313c28.528,4.861,50.012,16.842,51.212,27.874c0.768-1.032,1.321-2.13,1.63-3.292
				c3.144-11.818-19.68-25.722-50.98-31.055c-31.299-5.333-59.221-0.076-62.366,11.742c-0.278,1.046-0.349,2.109-0.233,3.181
				C365.646,120.306,391.117,116.504,419.338,121.313z"/>
		</g>
		<g>
			<g>
				<path style="fill:#455A64;" d="M413.082,134.364c7.17,3.746,11.987,10.83,18.632,15.443c4.397,3.052,9.734,5.16,12.695,9.618
					c-0.293-2.607-2.077-4.776-3.86-6.701c-5.023-5.422-10.66-10.274-16.769-14.433c-3.136-2.135-6.62-4.154-10.413-4.128"/>
			</g>
			<g style="opacity:0.2;">
				<path d="M413.082,134.364c7.17,3.746,11.987,10.83,18.632,15.443c4.397,3.052,9.734,5.16,12.695,9.618
					c-0.293-2.607-2.077-4.776-3.86-6.701c-5.023-5.422-10.66-10.274-16.769-14.433c-3.136-2.135-6.62-4.154-10.413-4.128"/>
			</g>
			<g>
				<path style="fill:#455A64;" d="M447.198,37.584c-0.129-1.163-0.341-2.395-1.13-3.258c-1.082-1.183-2.889-1.305-4.488-1.185
					c-6.824,0.51-15.496,10.618-19.671,16.04l0.699,30.094C441.286,69.487,448.802,52.033,447.198,37.584z"/>
			</g>
			<g style="opacity:0.2;">
				<path d="M447.198,37.584c-0.129-1.163-0.341-2.395-1.13-3.258c-1.082-1.183-2.889-1.305-4.488-1.185
					c-6.824,0.51-15.496,10.618-19.671,16.04l0.699,30.094C441.286,69.487,448.802,52.033,447.198,37.584z"/>
			</g>
			<g>
				<path style="fill:#455A64;" d="M417.659,99.377c3.57-1.194,7.149-2.284,10.704-2.862c3.554-0.578,7.128-2.066,10.633-2.89
					c4.545-1.069,8.788-3.119,13.147-4.791c4.359-1.672,9.007-2.987,13.648-2.483c-3.426-1.735-7.328-2.356-11.168-2.351
					c-3.84,0.005-7.651,0.611-11.443,1.215c-5.263,0.839-10.621,1.707-15.385,4.094C423.031,91.697,418.647,94.14,417.659,99.377"/>
			</g>
			<g style="opacity:0.2;">
				<path d="M417.659,99.377c3.57-1.194,7.149-2.284,10.704-2.862c3.554-0.578,7.128-2.066,10.633-2.89
					c4.545-1.069,8.788-3.119,13.147-4.791c4.359-1.672,9.007-2.987,13.648-2.483c-3.426-1.735-7.328-2.356-11.168-2.351
					c-3.84,0.005-7.651,0.611-11.443,1.215c-5.263,0.839-10.621,1.707-15.385,4.094C423.031,91.697,418.647,94.14,417.659,99.377"/>
			</g>
			<g>
				<path style="fill:#455A64;" d="M393.434,100.402c-4.617-6.765-13.857-8.737-21.807-10.705
					c10.568,9.107,21.494,20.625,29.652,31.942C403.118,116.14,399.266,108.947,393.434,100.402z"/>
			</g>
			<g style="opacity:0.2;">
				<path d="M393.434,100.402c-4.617-6.765-13.857-8.737-21.807-10.705c10.568,9.107,21.494,20.625,29.652,31.942
					C403.118,116.14,399.266,108.947,393.434,100.402z"/>
			</g>
			<g>
				<path style="fill:#455A64;" d="M399.389,142.393c-9.507-2.748-17.352-13.609-26.725-16.676
					C383.483,125.207,397.012,131.7,399.389,142.393"/>
			</g>
			<g style="opacity:0.2;">
				<path d="M399.389,142.393c-9.507-2.748-17.352-13.609-26.725-16.676C383.483,125.207,397.012,131.7,399.389,142.393"/>
			</g>
			<g>
				<path style="fill:#455A64;" d="M408.855,120.444c5.324-0.43,10.67,0.933,15.548,3.108c4.878,2.175,9.353,5.145,13.802,8.1
					c0.41-3.446-1.596-6.666-3.518-9.556c-1.446-2.175-2.904-4.364-4.734-6.226c-1.831-1.862-4.08-3.397-6.627-3.974
					c-3.072-0.697-6.39,0.085-9.006,1.84C411.705,115.492,410.006,117.512,408.855,120.444"/>
			</g>
			<g>
				<path style="fill:#455A64;" d="M400.11,155.479c0,0,4.717-32.248,9.948-50.032c5.232-17.785,10.304-38.013,10.304-38.013
					l2.06,0.56c0,0-11.04,35.122-15.339,56.946c-4.295,21.807-2.874,31.606-2.874,31.606L400.11,155.479"/>
			</g>
			<g>
				<path style="fill:#455A64;" d="M445.279,35.321c0.009,0.008-0.066,0.121-0.219,0.331c-0.179,0.238-0.404,0.537-0.68,0.905
					c-0.6,0.778-1.455,1.914-2.492,3.331c-2.077,2.832-4.828,6.832-7.568,11.436c-2.735,4.609-4.932,8.939-6.425,12.118
					c-0.748,1.588-1.337,2.882-1.733,3.782c-0.191,0.418-0.346,0.759-0.469,1.03c-0.111,0.234-0.175,0.355-0.186,0.35
					c-0.011-0.005,0.03-0.134,0.12-0.377c0.107-0.278,0.242-0.627,0.408-1.056c0.357-0.917,0.913-2.228,1.633-3.833
					c1.438-3.211,3.606-7.571,6.348-12.193c2.747-4.617,5.539-8.606,7.671-11.405c1.065-1.4,1.951-2.515,2.585-3.267
					c0.298-0.351,0.54-0.637,0.733-0.864C445.176,35.412,445.27,35.313,445.279,35.321z"/>
			</g>
			<g>
				<path style="fill:#455A64;" d="M416.905,83.807c-6.149-6.805-7.909-16.235-5.348-25.042c1.791-6.156,5.694-11.459,9.758-16.419
					c0.352-0.43,0.752-0.887,1.299-0.989c0.761-0.142,1.447,0.453,1.959,1.034c4.436,5.038,5.719,12.176,5.402,18.882
					c-0.211,4.462-1.069,8.948-3.056,12.948C424.93,78.222,420.969,81.955,416.905,83.807"/>
			</g>
			<g>
				<path style="fill:#263238;" d="M416.905,83.807c-0.011-0.004,0.022-0.134,0.096-0.376c0.09-0.278,0.202-0.627,0.34-1.054
					c0.31-0.91,0.726-2.238,1.209-3.886c0.97-3.296,2.083-7.916,2.926-13.091c0.839-5.178,1.322-9.906,1.657-13.329
					c0.161-1.676,0.293-3.049,0.39-4.055c0.048-0.447,0.087-0.811,0.118-1.102c0.031-0.252,0.053-0.383,0.065-0.382
					c0.012,0.001,0.014,0.134,0.006,0.388c-0.014,0.292-0.031,0.658-0.052,1.107c-0.051,0.961-0.144,2.351-0.278,4.067
					c-0.272,3.431-0.716,8.171-1.557,13.364c-0.845,5.19-2.001,9.82-3.035,13.106c-0.515,1.644-0.968,2.963-1.319,3.86
					c-0.163,0.419-0.297,0.761-0.403,1.033C416.972,83.69,416.916,83.812,416.905,83.807z"/>
			</g>
			<g style="opacity:0.2;">
				<path d="M408.855,120.444c5.324-0.43,10.67,0.933,15.548,3.108c4.878,2.175,9.353,5.145,13.802,8.1
					c0.41-3.446-1.596-6.666-3.518-9.556c-1.446-2.175-2.904-4.364-4.734-6.226c-1.831-1.862-4.08-3.397-6.627-3.974
					c-3.072-0.697-6.39,0.085-9.006,1.84C411.705,115.492,410.006,117.512,408.855,120.444"/>
			</g>
			<g>
				<path style="fill:#455A64;" d="M432.175,146.708c-0.009,0.009-0.1-0.065-0.267-0.213c-0.194-0.178-0.43-0.395-0.716-0.658
					c-0.615-0.578-1.493-1.426-2.616-2.432c-0.551-0.514-1.168-1.063-1.843-1.636c-0.663-0.589-1.393-1.19-2.171-1.811
					c-1.559-1.232-3.314-2.553-5.323-3.646c-1.998-1.107-4.1-1.802-6.083-1.818c-0.995-0.028-1.935-0.044-2.806,0.07
					c-0.871,0.105-1.673,0.287-2.387,0.506c-1.433,0.438-2.509,1.022-3.224,1.46c-0.714,0.442-1.082,0.732-1.101,0.707
					c-0.008-0.01,0.078-0.09,0.248-0.234c0.168-0.147,0.43-0.347,0.779-0.588c0.699-0.478,1.773-1.105,3.222-1.582
					c0.723-0.239,1.537-0.439,2.427-0.559c0.89-0.13,1.854-0.124,2.853-0.105c2.032-0.003,4.22,0.709,6.241,1.833
					c2.04,1.111,3.802,2.45,5.358,3.703c0.777,0.631,1.503,1.244,2.16,1.844c0.67,0.585,1.279,1.146,1.82,1.673
					c1.104,1.033,1.957,1.909,2.543,2.518c0.268,0.282,0.489,0.515,0.67,0.705C432.109,146.609,432.184,146.699,432.175,146.708z"/>
			</g>
			<g>
				<path style="fill:#455A64;" d="M393.552,135.726c0.014-0.02,0.209,0.101,0.551,0.338c0.345,0.232,0.817,0.605,1.372,1.099
					c1.112,0.983,2.509,2.523,3.683,4.475c1.168,1.956,1.869,3.913,2.212,5.358c0.174,0.722,0.281,1.315,0.323,1.728
					c0.048,0.412,0.063,0.641,0.038,0.645c-0.061,0.009-0.198-0.896-0.603-2.308c-0.401-1.411-1.125-3.318-2.274-5.24
					c-1.154-1.918-2.495-3.455-3.551-4.474C394.249,136.323,393.515,135.776,393.552,135.726z"/>
			</g>
			<g>
				<path style="fill:#455A64;" d="M381.019,97.223c0.007-0.01,0.135,0.07,0.374,0.231c0.267,0.186,0.61,0.424,1.035,0.719
					c0.458,0.326,1.002,0.713,1.626,1.157c0.633,0.453,1.293,1.047,2.055,1.663c3.014,2.495,6.875,6.364,10.28,11.298
					c1.664,2.489,3.11,4.952,4.246,7.284c1.129,2.334,2.036,4.487,2.698,6.331c0.671,1.84,1.148,3.352,1.473,4.395
					c0.154,0.493,0.278,0.892,0.375,1.202c0.084,0.275,0.123,0.422,0.112,0.426c-0.011,0.004-0.072-0.134-0.178-0.402
					c-0.107-0.268-0.259-0.666-0.438-1.182c-0.365-1.031-0.878-2.528-1.576-4.351c-0.69-1.827-1.617-3.96-2.756-6.274
					c-1.146-2.312-2.593-4.755-4.246-7.229c-3.384-4.903-7.19-8.773-10.15-11.307c-0.748-0.626-1.394-1.231-2.014-1.698
					c-0.609-0.462-1.139-0.864-1.586-1.202c-0.409-0.317-0.738-0.573-0.995-0.772C381.127,97.332,381.012,97.233,381.019,97.223z"/>
			</g>
			<g>
				<path style="fill:#455A64;" d="M424.641,118.969c-0.013,0.021-0.274-0.089-0.735-0.305c-0.249-0.12-0.526-0.253-0.833-0.4
					c-0.323-0.159-0.721-0.269-1.142-0.431c-1.683-0.591-4.224-1.129-6.914-0.488c-1.345,0.277-2.557,0.815-3.588,1.404
					c-1.042,0.58-1.895,1.248-2.564,1.852c-1.357,1.206-1.94,2.185-1.993,2.149c-0.017-0.01,0.109-0.265,0.396-0.692
					c0.301-0.414,0.754-1.012,1.427-1.64c0.66-0.639,1.513-1.341,2.571-1.95c1.047-0.619,2.289-1.182,3.674-1.468
					c2.775-0.661,5.392-0.063,7.077,0.598c0.423,0.18,0.82,0.309,1.139,0.486c0.301,0.169,0.571,0.321,0.815,0.458
					C424.415,118.798,424.654,118.949,424.641,118.969z"/>
			</g>
			<g>
				<path style="fill:#455A64;" d="M443.638,87.63c0.002,0.012-0.143,0.054-0.422,0.125c-0.315,0.074-0.721,0.17-1.223,0.289
					c-1.062,0.248-2.595,0.622-4.474,1.136c-1.875,0.529-4.097,1.201-6.509,2.096c-2.408,0.9-5.029,1.995-7.582,3.497
					c-1.264,0.761-2.464,1.588-3.415,2.584c-0.952,1.031-1.865,2.03-2.718,2.995c-1.709,1.927-3.166,3.733-4.294,5.319
					c-1.126,1.587-1.929,2.945-2.446,3.902c-0.522,0.956-0.767,1.508-0.799,1.493c-0.011-0.005,0.042-0.146,0.153-0.412
					c0.109-0.266,0.278-0.656,0.524-1.145c0.482-0.981,1.257-2.367,2.363-3.982c1.108-1.613,2.553-3.445,4.254-5.39
					c0.849-0.974,1.759-1.979,2.707-3.014c0.989-1.043,2.207-1.881,3.489-2.654c2.584-1.52,5.224-2.61,7.65-3.498
					c2.431-0.883,4.668-1.532,6.557-2.032c1.893-0.485,3.438-0.823,4.51-1.029c0.508-0.092,0.918-0.167,1.238-0.224
					C443.486,87.637,443.635,87.618,443.638,87.63z"/>
			</g>
			<g>
				<path style="fill:#455A64;" d="M408.576,115.483c-0.024-0.001-0.033-0.306-0.027-0.856c0.008-0.621,0.017-1.4,0.028-2.327
					c0.012-1.963-0.028-4.677-0.364-7.648c-0.328-2.974-0.922-5.624-1.361-7.537c-0.21-0.903-0.386-1.662-0.526-2.268
					c-0.121-0.537-0.177-0.836-0.154-0.843s0.124,0.281,0.286,0.807c0.162,0.526,0.384,1.291,0.636,2.243
					c0.502,1.901,1.139,4.56,1.469,7.558c0.339,2.994,0.339,5.727,0.263,7.693c-0.04,0.984-0.088,1.78-0.141,2.328
					C408.639,115.182,408.601,115.484,408.576,115.483z"/>
			</g>
			<g>
				<path style="fill:#455A64;" d="M412.332,93.275c0.497-3.713,0.022-7.515-1.039-11.108c-2.91-9.851-10.425-18.236-19.9-22.203
					c5.054,12.237,10.107,24.473,15.161,36.71l1.636,6.336C410.733,100.259,411.835,96.989,412.332,93.275z"/>
			</g>
			<g style="opacity:0.2;">
				<path d="M412.332,93.275c0.497-3.713,0.022-7.515-1.039-11.108c-2.91-9.851-10.425-18.236-19.9-22.203
					c5.054,12.237,10.107,24.473,15.161,36.71l1.636,6.336C410.733,100.259,411.835,96.989,412.332,93.275z"/>
			</g>
		</g>
	</g>
	<g>
		<g>
			<g>
				
					<ellipse transform="matrix(0.7081 -0.7061 0.7061 0.7081 -233.4808 255.0635)" style="fill:#263238;" cx="191.745" cy="409.914" rx="29.02" ry="45.175"/>
			</g>
			<g>
				<path style="fill:#455A64;" d="M177.551,424.303c-16.077-16.083-21.756-37.033-14.068-49.211
					c-1.331,0.802-2.564,1.757-3.676,2.873c-11.316,11.35-6.19,34.856,11.449,52.501c17.639,17.645,41.111,22.748,52.427,11.398
					c1.002-1.005,1.872-2.107,2.619-3.29C214.1,445.923,193.455,440.212,177.551,424.303z"/>
			</g>
		</g>
		<g>
			<g>
				<path style="fill:#455A64;" d="M195.537,402.619l14.247-15.17l1.696,1.695c0,0-12.053,13.998-12.245,17.342L195.537,402.619z"/>
			</g>
			<g>
				<g>
					<g>
						<polygon style="fill:#FF725E;" points="172.319,393.885 152.811,423.013 182.373,452.582 211.754,430.165 						"/>
					</g>
				</g>
			</g>
			<g>
				<path style="fill:#FF725E;" d="M182.564,452.418c-2.671,2.618-11.384-1.938-19.46-10.176
					c-8.076-8.239-12.458-17.04-9.787-19.659c2.671-2.618,11.384,1.938,19.46,10.176
					C180.854,440.998,185.235,449.799,182.564,452.418z"/>
			</g>
			<g style="opacity:0.3;">
				<path d="M182.564,452.418c-2.671,2.618-11.384-1.938-19.46-10.176c-8.076-8.239-12.458-17.04-9.787-19.659
					c2.671-2.618,11.384,1.938,19.46,10.176C180.854,440.998,185.235,449.799,182.564,452.418z"/>
			</g>
			<g>
				<path style="fill:#FF725E;" d="M212.631,432.397c-2.441,2.221-14.789,0.327-28.268-12.073c-13.479-12.4-21.117-21.731-14.24-29
					c5.652-5.974,16.928-1.431,30.407,10.969C214.009,414.694,220.649,425.103,212.631,432.397z"/>
			</g>
			<g>
				<g>
					<path style="fill:#263238;" d="M182.373,452.582c-0.008-0.01,0.153-0.151,0.472-0.415c0.347-0.281,0.818-0.664,1.418-1.151
						c1.279-1.017,3.103-2.467,5.404-4.296c4.692-3.688,11.322-8.899,19.198-15.09l-0.028,0.026
						c0.611-0.678,0.613-1.761,0.422-2.737c-0.191-0.998-0.566-1.987-1.016-2.953c-0.908-1.934-2.102-3.809-3.437-5.641
						c-2.677-3.665-5.924-7.177-9.493-10.528c-3.893-3.645-7.976-6.865-12.155-9.431c-2.091-1.274-4.207-2.397-6.358-3.199
						c-1.075-0.39-2.16-0.725-3.242-0.848c-1.056-0.135-2.221-0.062-2.896,0.633l0.021-0.027c-5.308,7.8-9.75,14.327-12.887,18.937
						c-1.556,2.259-2.788,4.046-3.652,5.3c-0.413,0.586-0.738,1.047-0.978,1.388c-0.225,0.312-0.346,0.47-0.356,0.463
						c-0.01-0.007,0.091-0.178,0.296-0.503c0.226-0.35,0.532-0.824,0.921-1.427c0.839-1.271,2.035-3.082,3.547-5.371
						c3.099-4.635,7.487-11.198,12.731-19.042l0.01-0.014l0.012-0.012c0.415-0.446,0.997-0.678,1.564-0.775
						c0.573-0.101,1.152-0.086,1.721-0.017c1.143,0.127,2.254,0.467,3.355,0.862c2.199,0.811,4.339,1.941,6.454,3.223
						c4.223,2.58,8.334,5.816,12.249,9.481c3.588,3.369,6.85,6.904,9.546,10.61c1.343,1.853,2.548,3.751,3.471,5.734
						c0.457,0.991,0.843,2.009,1.042,3.07c0.189,1.027,0.234,2.254-0.549,3.14l-0.012,0.013l-0.017,0.013
						c-7.923,6.129-14.594,11.289-19.314,14.941c-2.335,1.785-4.186,3.201-5.484,4.193c-0.619,0.463-1.104,0.827-1.462,1.094
						C182.557,452.47,182.381,452.592,182.373,452.582z"/>
				</g>
			</g>
		</g>
	</g>
</g>
<g id="Texts">
	<g>
		<path style="fill:#263238;" d="M273.009,391.181v4.847h-17.803v-22.174h17.391v4.847h-11.182v3.737h9.852v4.689h-9.852v4.055
			H273.009z"/>
		<path style="fill:#263238;" d="M286.185,390.136h-3.421v5.892h-6.272v-22.174h10.137c6.05,0,9.852,3.136,9.852,8.204
			c0,3.263-1.583,5.67-4.339,7.001l4.783,6.969h-6.716L286.185,390.136z M286.249,378.795h-3.485v6.494h3.485
			c2.597,0,3.896-1.204,3.896-3.232C290.145,379.999,288.846,378.795,286.249,378.795z"/>
		<path style="fill:#263238;" d="M309.625,390.136h-3.421v5.892h-6.272v-22.174h10.137c6.05,0,9.852,3.136,9.852,8.204
			c0,3.263-1.583,5.67-4.339,7.001l4.783,6.969h-6.716L309.625,390.136z M309.688,378.795h-3.485v6.494h3.485
			c2.597,0,3.896-1.204,3.896-3.232C313.584,379.999,312.285,378.795,309.688,378.795z"/>
		<path style="fill:#263238;" d="M322.231,384.941c0-6.652,5.227-11.53,12.322-11.53s12.322,4.878,12.322,11.53
			c0,6.652-5.227,11.53-12.322,11.53S322.231,391.593,322.231,384.941z M340.54,384.941c0-3.833-2.629-6.336-5.987-6.336
			c-3.358,0-5.987,2.503-5.987,6.336c0,3.833,2.629,6.335,5.987,6.335C337.911,391.276,340.54,388.774,340.54,384.941z"/>
		<path style="fill:#263238;" d="M359.861,390.136h-3.421v5.892h-6.272v-22.174h10.137c6.05,0,9.852,3.136,9.852,8.204
			c0,3.263-1.583,5.67-4.339,7.001l4.783,6.969h-6.716L359.861,390.136z M359.924,378.795h-3.485v6.494h3.485
			c2.597,0,3.896-1.204,3.896-3.232C363.82,379.999,362.522,378.795,359.924,378.795z"/>
		<path style="fill:#263238;" d="M412.029,382.058c0,5.037-3.801,8.173-9.852,8.173h-3.864v5.797h-6.272v-22.174h10.137
			C408.228,373.854,412.029,376.99,412.029,382.058z M405.694,382.058c0-2.059-1.299-3.263-3.897-3.263h-3.484v6.494h3.484
			C404.395,385.289,405.694,384.085,405.694,382.058z"/>
		<path style="fill:#263238;" d="M428.817,391.72h-9.377l-1.742,4.308h-6.398l9.788-22.174h6.177l9.82,22.174h-6.525L428.817,391.72
			z M426.979,387.095l-2.85-7.096l-2.851,7.096H426.979z"/>
		<path style="fill:#263238;" d="M453.397,384.465h5.543v9.186c-2.565,1.838-6.082,2.819-9.313,2.819
			c-7.065,0-12.228-4.783-12.228-11.53c0-6.747,5.163-11.53,12.354-11.53c4.15,0,7.508,1.425,9.693,4.055l-3.991,3.61
			c-1.521-1.679-3.263-2.471-5.385-2.471c-3.802,0-6.336,2.503-6.336,6.336c0,3.738,2.534,6.335,6.272,6.335
			c1.172,0,2.281-0.222,3.39-0.728V384.465z"/>
		<path style="fill:#263238;" d="M480.732,391.181v4.847H462.93v-22.174h17.391v4.847h-11.183v3.737h9.852v4.689h-9.852v4.055
			H480.732z"/>
	</g>
	<g>
		<g>
			<g>
				<path style="fill:#FF725E;" d="M271.944,322.697H218.21V296.38L269.385,171.9h30.706V296.38h13.306v26.317h-13.306v33.423
					h-28.147V322.697z M271.944,296.38v-71.846h-0.512l-27.635,71.846H271.944z"/>
			</g>
			<g style="opacity:0.3;">
				<path d="M271.944,322.697H218.21V296.38L269.385,171.9h30.706V296.38h13.306v26.317h-13.306v33.423h-28.147V322.697z
					 M271.944,296.38v-71.846h-0.512l-27.635,71.846H271.944z"/>
			</g>
			<g>
				<path style="fill:#FF725E;" d="M259.13,322.696h-53.734v-26.317l51.176-124.48h30.706v124.48h13.306v26.317h-13.306v33.423
					H259.13V322.696z M259.13,296.379v-71.846h-0.512l-27.635,71.846H259.13z"/>
			</g>
		</g>
		<g>
			<g>
				<path style="fill:#FF725E;" d="M335.89,346.646c-7.336-8.067-11.003-19.475-11.003-34.212v-96.847
					c0-14.738,3.667-26.141,11.003-34.213c7.332-8.067,17.912-12.105,31.728-12.105c13.817,0,24.394,4.038,31.73,12.105
					c7.332,8.072,11.002,19.475,11.002,34.213v96.847c0,14.737-3.67,26.145-11.002,34.212c-7.336,8.072-17.912,12.107-31.73,12.107
					C353.802,358.752,343.223,354.718,335.89,346.646z M382.204,314.276V213.745c0-12.105-4.861-18.158-14.585-18.158
					c-9.723,0-14.585,6.053-14.585,18.158v100.531c0,12.107,4.862,18.159,14.585,18.159
					C377.342,332.435,382.204,326.382,382.204,314.276z"/>
			</g>
			<g style="opacity:0.3;">
				<path d="M399.348,181.374c-7.336-8.067-17.912-12.105-31.73-12.105c-13.817,0-24.396,4.038-31.728,12.105
					c-7.336,8.072-11.003,19.475-11.003,34.213v96.847c0,14.737,3.667,26.145,11.003,34.212
					c7.332,8.072,17.912,12.107,31.728,12.107c13.817,0,24.394-4.034,31.73-12.107c7.332-8.067,11.002-19.475,11.002-34.212v-96.847
					C410.35,200.849,406.68,189.447,399.348,181.374z M382.204,314.276c0,12.107-4.861,18.159-14.585,18.159
					c-9.723,0-14.585-7.597-14.585-18.159V213.745c0-10.98,4.862-18.158,14.585-18.158c9.724,0,14.585,6.053,14.585,18.158V314.276z
					"/>
			</g>
			<g>
				<path style="fill:#FF725E;" d="M323.076,346.645c-7.336-8.067-11.003-19.475-11.003-34.212v-96.847
					c0-14.738,3.667-26.141,11.003-34.213c7.333-8.067,17.912-12.105,31.729-12.105c13.817,0,24.393,4.038,31.729,12.105
					c7.332,8.072,11.002,19.475,11.002,34.213v96.847c0,14.737-3.67,26.145-11.002,34.212c-7.336,8.072-17.912,12.106-31.729,12.106
					C340.987,358.751,330.408,354.717,323.076,346.645z M369.389,314.275V213.744c0-12.105-4.861-18.158-14.585-18.158
					c-9.723,0-14.585,6.053-14.585,18.158v100.531c0,12.106,4.862,18.159,14.585,18.159
					C364.528,332.434,369.389,326.381,369.389,314.275z"/>
			</g>
		</g>
		<g>
			<g>
				<path style="fill:#FF725E;" d="M473.201,322.698h-53.735v-26.317l51.176-124.479h30.706v124.479h13.306v26.317h-13.306v33.423
					h-28.146V322.698z M473.201,296.381v-71.846h-0.512l-27.636,71.846H473.201z"/>
			</g>
			<g style="opacity:0.3;">
				<path d="M473.201,322.698h-53.735v-26.317l51.176-124.479h30.706v124.479h13.306v26.317h-13.306v33.423h-28.146V322.698z
					 M473.201,296.381v-71.846h-0.512l-27.636,71.846H473.201z"/>
			</g>
			<g>
				<path style="fill:#FF725E;" d="M460.386,322.697h-53.735V296.38L457.826,171.9h30.706V296.38h13.306v26.317h-13.306v33.423
					h-28.147V322.697z M460.386,296.38v-71.846h-0.512l-27.636,71.846H460.386z"/>
			</g>
		</g>
	</g>
</g>
<g id="Character_00000101791268415360144000000006004427990235662522_">
	<g>
		<g>
			<g>
				
					<ellipse transform="matrix(0.9802 -0.1978 0.1978 0.9802 -38.9727 113.267)" style="fill:#263238;" cx="547.59" cy="251.752" rx="24.39" ry="76.419"/>
			</g>
			<g>
				<path style="fill:#455A64;" d="M564.276,248.57c-7.608-37.708-22.794-67.11-35.422-70.005c1.117-0.875,2.324-1.462,3.623-1.723
					c13.204-2.664,30.674,28.715,39.021,70.087c8.347,41.372,4.409,77.069-8.795,79.733c-1.169,0.236-2.372,0.2-3.599-0.081
					C569.34,318.558,571.802,285.873,564.276,248.57z"/>
			</g>
		</g>
		<g>
			<g>
				<g>
					<g>
						<g>
							<g>
								<g>
									<g>
										<g>
											<g>
												<g>
													<g>
														<g>
															<g>
																<g>
																	<g>
																		<g>
																			<path style="fill:#263238;" d="M696.227,177.265l14.146-20.646c0,0,25.737,7.445,28.722,3.883l-39.046-28.865
																				l-23.361,31.265L696.227,177.265z"/>
																		</g>
																	</g>
																</g>
															</g>
														</g>
													</g>
												</g>
											</g>
										</g>
									</g>
								</g>
							</g>
						</g>
					</g>
					<g>
						<g>
							<g>
								<g>
									<g>
										<g>
											<g>
												<g>
													<g>
														<g>
															<g>
																<g>
																	<g>
																		<g>
																			<g>
																				<path style="fill:#E0E0E0;" d="M697.048,149.385c-0.603-0.765-0.497-2.001,0.243-2.635
																					c0.74-0.634,1.997-0.537,2.614,0.218c0.616,0.754,0.535,2.241-0.272,2.789
																					c-0.806,0.547-2.276,0.353-2.693-0.528"/>
																			</g>
																		</g>
																	</g>
																</g>
															</g>
														</g>
													</g>
												</g>
											</g>
										</g>
									</g>
								</g>
							</g>
						</g>
					</g>
					<g>
						<g>
							<g>
								<g>
									<g>
										<g>
											<g>
												<g>
													<g>
														<g>
															<g>
																<g>
																	<g>
																		<g>
																			<path style="fill:#455A64;" d="M700.048,131.637l-2.231,3.244l38.271,26.463c0,0,2.297,0.529,3.006-0.841
																				L700.048,131.637z"/>
																		</g>
																	</g>
																</g>
															</g>
														</g>
													</g>
												</g>
											</g>
										</g>
									</g>
								</g>
							</g>
						</g>
					</g>
					<g>
						<g>
							<g>
								<g>
									<g>
										<g>
											<g>
												<g>
													<g>
														<g>
															<g>
																<g>
																	<g>
																		<g>
																			<g>
																				<path style="fill:#FFFFFF;" d="M710.859,157.286c0.135-0.195-0.755-0.987-1.24-2.293
																					c-0.519-1.294-0.392-2.478-0.623-2.532c-0.203-0.093-0.761,1.257-0.146,2.829
																					C709.45,156.866,710.771,157.491,710.859,157.286z"/>
																			</g>
																		</g>
																	</g>
																</g>
															</g>
														</g>
													</g>
												</g>
											</g>
										</g>
									</g>
								</g>
							</g>
						</g>
					</g>
					<g>
						<g>
							<g>
								<g>
									<g>
										<g>
											<g>
												<g>
													<g>
														<g>
															<g>
																<g>
																	<g>
																		<g>
																			<g>
																				<path style="fill:#FFFFFF;" d="M716.206,158.619c0.18-0.152-0.406-1.087-0.457-2.372
																					c-0.089-1.283,0.392-2.276,0.196-2.408c-0.157-0.163-1.114,0.857-1.02,2.453
																					C715.005,157.889,716.068,158.798,716.206,158.619z"/>
																			</g>
																		</g>
																	</g>
																</g>
															</g>
														</g>
													</g>
												</g>
											</g>
										</g>
									</g>
								</g>
							</g>
						</g>
					</g>
					<g>
						<g>
							<g>
								<g>
									<g>
										<g>
											<g>
												<g>
													<g>
														<g>
															<g>
																<g>
																	<g>
																		<g>
																			<g>
																				<path style="fill:#FFFFFF;" d="M722.156,155.437c-0.143-0.169-1.113,0.588-1.395,1.994
																					c-0.292,1.405,0.302,2.481,0.5,2.382c0.224-0.077,0.059-1.065,0.309-2.216
																					C721.791,156.44,722.331,155.596,722.156,155.437z"/>
																			</g>
																		</g>
																	</g>
																</g>
															</g>
														</g>
													</g>
												</g>
											</g>
										</g>
									</g>
								</g>
							</g>
						</g>
					</g>
					<g>
						<g>
							<g>
								<g>
									<g>
										<g>
											<g>
												<g>
													<g>
														<g>
															<g>
																<g>
																	<g>
																		<g>
																			<g>
																				<path style="fill:#FFFFFF;" d="M707.113,161.633c0.048-0.233-1.021-0.616-2.044-1.486
																					c-1.041-0.849-1.613-1.831-1.833-1.741c-0.212,0.056,0.085,1.367,1.305,2.375
																					C705.752,161.798,707.096,161.852,707.113,161.633z"/>
																			</g>
																		</g>
																	</g>
																</g>
															</g>
														</g>
													</g>
												</g>
											</g>
										</g>
									</g>
								</g>
							</g>
						</g>
					</g>
				</g>
				<g>
					<g>
						<g>
							<g>
								<g>
									<g>
										<g>
											<g>
												<g>
													<g>
														<g>
															<g>
																<g>
																	<g>
																		<path style="fill:#263238;" d="M682.661,261.183l14.267-20.562c0,0,25.692,7.596,28.699,4.053l-38.875-29.095
																			l-23.544,31.126L682.661,261.183z"/>
																	</g>
																</g>
															</g>
														</g>
													</g>
												</g>
											</g>
										</g>
									</g>
								</g>
							</g>
						</g>
					</g>
				</g>
				<g>
					<g>
						<g>
							<g>
								<g>
									<g>
										<g>
											<g>
												<g>
													<g>
														<g>
															<g>
																<g>
																	<g>
																		<g>
																			<path style="fill:#E0E0E0;" d="M683.647,233.308c-0.599-0.769-0.485-2.003,0.258-2.633
																				c0.743-0.63,2-0.525,2.612,0.233c0.612,0.758,0.521,2.245-0.288,2.787c-0.809,0.542-2.278,0.339-2.69-0.544"/>
																		</g>
																	</g>
																</g>
															</g>
														</g>
													</g>
												</g>
											</g>
										</g>
									</g>
								</g>
							</g>
						</g>
					</g>
				</g>
				<g>
					<g>
						<g>
							<g>
								<g>
									<g>
										<g>
											<g>
												<g>
													<g>
														<g>
															<g>
																<g>
																	<g>
																		<path style="fill:#455A64;" d="M686.752,215.579l-2.25,3.23l38.115,26.688c0,0,2.294,0.542,3.011-0.823
																			L686.752,215.579z"/>
																	</g>
																</g>
															</g>
														</g>
													</g>
												</g>
											</g>
										</g>
									</g>
								</g>
							</g>
						</g>
					</g>
				</g>
				<g>
					<g>
						<g>
							<g>
								<g>
									<g>
										<g>
											<g>
												<g>
													<g>
														<g>
															<g>
																<g>
																	<g>
																		<g>
																			<path style="fill:#FFFFFF;" d="M697.41,241.29c0.136-0.195-0.749-0.991-1.226-2.3
																				c-0.511-1.297-0.377-2.48-0.608-2.535c-0.202-0.094-0.769,1.253-0.163,2.828
																				C696.004,240.863,697.321,241.495,697.41,241.29z"/>
																		</g>
																	</g>
																</g>
															</g>
														</g>
													</g>
												</g>
											</g>
										</g>
									</g>
								</g>
							</g>
						</g>
					</g>
				</g>
				<g>
					<g>
						<g>
							<g>
								<g>
									<g>
										<g>
											<g>
												<g>
													<g>
														<g>
															<g>
																<g>
																	<g>
																		<g>
																			<path style="fill:#FFFFFF;" d="M702.75,242.655c0.181-0.151-0.399-1.09-0.443-2.375
																				c-0.081-1.284,0.406-2.274,0.21-2.407c-0.156-0.164-1.119,0.85-1.034,2.447
																				C701.553,241.918,702.611,242.833,702.75,242.655z"/>
																		</g>
																	</g>
																</g>
															</g>
														</g>
													</g>
												</g>
											</g>
										</g>
									</g>
								</g>
							</g>
						</g>
					</g>
				</g>
				<g>
					<g>
						<g>
							<g>
								<g>
									<g>
										<g>
											<g>
												<g>
													<g>
														<g>
															<g>
																<g>
																	<g>
																		<g>
																			<path style="fill:#FFFFFF;" d="M708.718,239.508c-0.142-0.169-1.116,0.581-1.407,1.986
																				c-0.301,1.403,0.287,2.483,0.486,2.385c0.224-0.076,0.065-1.065,0.321-2.214
																				C708.348,240.509,708.893,239.668,708.718,239.508z"/>
																		</g>
																	</g>
																</g>
															</g>
														</g>
													</g>
												</g>
											</g>
										</g>
									</g>
								</g>
							</g>
						</g>
					</g>
				</g>
				<g>
					<g>
						<g>
							<g>
								<g>
									<g>
										<g>
											<g>
												<g>
													<g>
														<g>
															<g>
																<g>
																	<g>
																		<g>
																			<path style="fill:#FFFFFF;" d="M693.639,245.615c0.05-0.233-1.017-0.622-2.035-1.499
																				c-1.036-0.855-1.602-1.84-1.823-1.751c-0.213,0.055,0.077,1.368,1.291,2.383
																				C692.278,245.772,693.621,245.834,693.639,245.615z"/>
																		</g>
																	</g>
																</g>
															</g>
														</g>
													</g>
												</g>
											</g>
										</g>
									</g>
								</g>
							</g>
						</g>
					</g>
				</g>
				<g>
					<g>
						<path style="fill:#263238;" d="M535.393,276.084c1.328,0.003,119.907-34.16,128.154-41.581
							c8.248-7.421,41.932-66.182,41.932-66.182l-23.924-19.506L639.972,203l-73.017,6.592c0,0-30.784-2.1-36.149,8.909
							l-0.507,16.478L535.393,276.084z"/>
					</g>
				</g>
				<g>
					<g>
						<path style="fill:#263238;" d="M535.393,276.084c1.755,0.05,54.724,58.99,71.317,62.342
							c16.593,3.352,24.944-8.093,30.611-14.954c7.217-8.739,56.379-71.474,56.379-71.474l-24.663-20.399l-54.067,57.533
							l-32.511-44.772l-28.343-2.657l-17.233,15.265L535.393,276.084z"/>
					</g>
				</g>
				<g>
					<g>
						<g>
							<path style="fill:#455A64;" d="M610.157,294.635c-0.007-0.006,0.057-0.089,0.187-0.243c0.152-0.176,0.346-0.399,0.588-0.677
								c0.551-0.616,1.321-1.475,2.299-2.568c2.04-2.243,4.947-5.439,8.528-9.375c3.623-3.954,7.925-8.648,12.699-13.858
								c2.398-2.601,4.915-5.331,7.523-8.16c2.647-2.795,5.387-5.688,8.194-8.652c6.774-7.13,13.159-13.85,18.687-19.669
								l0.156-0.164l0.172,0.144c7.304,6.094,13.439,11.212,17.782,14.835c2.122,1.793,3.805,3.214,4.99,4.214
								c0.55,0.475,0.983,0.849,1.306,1.128c0.293,0.259,0.441,0.397,0.432,0.408c-0.008,0.01-0.172-0.109-0.481-0.348
								c-0.334-0.265-0.783-0.62-1.353-1.071c-1.205-0.976-2.916-2.362-5.075-4.111c-4.373-3.586-10.551-8.653-17.906-14.684
								l0.328-0.02c-5.515,5.831-11.884,12.565-18.641,19.709c-2.809,2.961-5.552,5.851-8.201,8.644
								c-2.616,2.822-5.14,5.544-7.546,8.138c-4.806,5.18-9.136,9.846-12.784,13.777c-3.633,3.887-6.583,7.043-8.654,9.258
								c-1.01,1.063-1.804,1.899-2.373,2.499c-0.258,0.264-0.465,0.475-0.627,0.641
								C610.241,294.572,610.164,294.642,610.157,294.635z"/>
						</g>
					</g>
				</g>
				<g>
					<g>
						<path style="fill:#455A64;" d="M609.478,254.169c0.01,0.035-0.538,0.228-1.536,0.549c-1.087,0.34-2.515,0.786-4.238,1.325
							c-3.58,1.111-8.542,2.598-13.976,4.365c-1.356,0.454-2.68,0.897-3.96,1.326c-1.28,0.416-2.514,0.817-3.613,1.341
							c-2.212,1.033-3.697,2.792-4.467,4.455c-0.783,1.674-1.059,3.18-1.265,4.199c-0.189,1.028-0.275,1.603-0.316,1.598
							c-0.018-0.002-0.018-0.148-0.001-0.424c0.014-0.277,0.054-0.683,0.117-1.205c0.148-1.036,0.366-2.569,1.131-4.322
							c0.75-1.74,2.287-3.629,4.592-4.732c1.136-0.556,2.382-0.97,3.663-1.394c1.279-0.432,2.602-0.878,3.956-1.335
							c5.447-1.771,10.425-3.202,14.034-4.223c1.805-0.507,3.27-0.905,4.286-1.167C608.902,254.261,609.468,254.134,609.478,254.169
							z"/>
					</g>
				</g>
			</g>
			<g>
				<g>
					<path style="fill:#455A64;" d="M519.423,225.369c-0.016-0.009,0.068-0.171,0.243-0.474c0.098-0.166,0.207-0.351,0.33-0.558
						c0.16-0.214,0.336-0.449,0.53-0.707c0.818-1.048,2.202-2.417,4.157-3.772c3.892-2.752,9.99-5.361,16.949-7.286
						c6.972-1.921,13.474-2.881,18.198-3.187c2.363-0.158,4.284-0.149,5.606-0.074c0.662,0.037,1.174,0.085,1.519,0.138
						c0.346,0.046,0.526,0.079,0.524,0.096c-0.005,0.05-0.732-0.025-2.05-0.032c-1.317-0.012-3.224,0.035-5.571,0.239
						c-4.692,0.398-11.153,1.411-18.087,3.322c-6.922,1.915-12.988,4.449-16.881,7.088c-1.956,1.3-3.354,2.604-4.208,3.597
						c-0.205,0.244-0.391,0.467-0.561,0.668c-0.136,0.194-0.258,0.368-0.367,0.524C519.552,225.233,519.438,225.377,519.423,225.369
						z"/>
				</g>
			</g>
			<g>
				<g>
					<path style="fill:#455A64;" d="M568.512,308.95c-0.012,0.014-0.154-0.081-0.414-0.275c-0.304-0.235-0.674-0.52-1.121-0.865
						c-1.029-0.81-2.411-1.897-4.09-3.218c-3.455-2.716-8.361-6.28-13.813-10.193c-5.456-3.916-10.17-7.782-13.424-10.744
						c-1.624-1.485-2.925-2.701-3.794-3.571c-0.399-0.4-0.73-0.73-1.001-1.002c-0.225-0.233-0.337-0.362-0.325-0.375
						c0.012-0.013,0.149,0.09,0.397,0.299c0.29,0.252,0.642,0.559,1.068,0.93c0.911,0.824,2.248,1.997,3.9,3.443
						c3.311,2.887,8.038,6.688,13.486,10.599c5.447,3.908,10.337,7.532,13.737,10.326c1.704,1.392,3.069,2.535,3.99,3.35
						c0.422,0.375,0.772,0.686,1.059,0.941C568.404,308.814,568.524,308.936,568.512,308.95z"/>
				</g>
			</g>
		</g>
	</g>
	<g>
		<g>
			<g>
				
					<ellipse transform="matrix(0.3506 -0.9365 0.9365 0.3506 -126.4552 334.6252)" style="fill:#263238;" cx="178.049" cy="258.491" rx="80.402" ry="25.661"/>
			</g>
			<g>
				<path style="fill:#455A64;" d="M161.245,252.405c14.188-37.905,34.865-65.917,48.466-66.82
					c-1.014-1.095-2.171-1.906-3.476-2.394c-13.273-4.968-36.652,24.717-52.218,66.305c-15.567,41.587-17.426,79.328-4.154,84.296
					c1.175,0.44,2.431,0.603,3.752,0.515C144.32,324.267,147.21,289.902,161.245,252.405z"/>
			</g>
			<g>
				<g>
					<g>
						<g>
							<path style="fill:#FFBF9D;" d="M22.303,158.803c0,0-3.54-9.029-5.073-12.296c-1.533-3.266-1.195-13.246-0.179-15.058
								c1.016-1.812,0.077-3.188,0.077-3.188s-5.221-9.729-2.777-12.13l1.423-0.161c0,0,5.226,10.441,5.404,10.647
								c0.178,0.205,1.321,0.263,1.684-1.558c0.363-1.821-0.517-7.216-0.517-7.216s-1.977-3.442-2.123-5.798
								c-0.055-0.886,0.74-2.142,1.447-2.678l0.715-0.542c0,0,4.389,7.937,4.633,9.878c0.244,1.942,1.052,6.149,1.052,6.149
								l0.611-0.491l0.05-9.736c0,0-2.196-8.242-0.526-10.045c1.67-1.803,1.83-0.291,1.83-0.291s3.135,8.414,3.368,10.546
								c0.095,0.87,0.192,9.232,0.192,9.232l1.349-0.556l0.469-7.822c0,0-1.579-7.759,0.787-8.549l1.897-0.061
								c0,0,1.8,10.212,1.996,10.688s-1.378,12.134-1.378,12.134L39.188,131l1.367-1.864c0,0,0.611-1.789,3.336-3.284
								c2.725-1.496,3.916-0.409,3.916-0.409l-3.421,6.081c0,0-3.114,7.105-4.387,8.744c-1.273,1.639-5.621,5.476-6.306,5.851
								c-0.686,0.376,0.084,3.531,0.084,3.531l1.078,2.202L22.303,158.803z"/>
						</g>
					</g>
				</g>
				<g>
					<g>
						<g>
							<g>
								<path style="fill:#FF9A6C;" d="M35.991,135.004c0.001,0.103-1.102,0.077-2.796,0.486c-1.682,0.396-3.966,1.336-5.91,3.13
									c-1.944,1.796-3.063,3.999-3.591,5.644c-0.542,1.656-0.604,2.758-0.706,2.748c-0.059,0.003-0.149-1.123,0.307-2.867
									c0.44-1.728,1.549-4.072,3.59-5.958c2.811-2.242,5.104-3.1,6.223-3.105C34.883,134.767,35.998,134.945,35.991,135.004z"/>
							</g>
						</g>
					</g>
				</g>
				<g>
					<g>
						<g>
							<g>
								<path style="fill:#FF9A6C;" d="M36.461,123.844c-0.005,0.199-4.107-0.471-8.941,0.799c-4.852,1.21-8.127,3.767-8.227,3.595
									c-0.041-0.052,0.711-0.757,2.119-1.64c1.402-0.884,3.496-1.891,5.962-2.526c2.466-0.627,4.786-0.75,6.441-0.648
									C35.473,123.522,36.472,123.779,36.461,123.844z"/>
							</g>
						</g>
					</g>
				</g>
				<g>
					<g>
						<path style="fill:#FFBF9D;" d="M22.303,158.803c0.34,0.823,17.559,52.941,25.004,58.537
							c7.445,5.596,56.621,20.045,56.621,20.045l7.728-26.2l-48.102-15.091L33.693,146.12L22.303,158.803z"/>
					</g>
				</g>
			</g>
			<g>
				<g>
					<polygon style="fill:#FF725E;" points="114.834,203.994 77.687,197.657 69.752,229.955 112.722,239.787 					"/>
				</g>
			</g>
			<g>
				<g>
					<g>
						<g>
							<g>
								<g>
									<g>
										<g>
											<g>
												<g>
													<g>
														<path style="fill:#FFBF9D;" d="M138.156,206.563l-2.18-56.975c-0.081-14.191-8.406-25.972-22.59-25.498l-1.308,0.12
															c-13.165,1.211-23.197,12.324-23.049,25.543c0.138,12.299,0.449,25.887,1.132,32.43
															c1.415,13.544,15.17,14.405,15.17,14.405c0.031-0.001,4.215,16.856,4.215,16.856l4.803,1.595l0,0L138.156,206.563z"/>
													</g>
												</g>
											</g>
										</g>
									</g>
								</g>
							</g>
						</g>
					</g>
					<g>
						<g>
							<g>
								<g>
									<g>
										<g>
											<g>
												<g>
													<g>
														<g>
															<path style="fill:#FF9A6C;" d="M105.332,196.588c0,0,8.593-0.285,17.175-6.843c0,0-2.495,10.913-16.138,10.936
																L105.332,196.588z"/>
														</g>
													</g>
												</g>
											</g>
										</g>
									</g>
								</g>
							</g>
						</g>
					</g>
					<g>
						<g>
							<g>
								<g>
									<g>
										<g>
											<g>
												<g>
													<g>
														<g>
															<g>
																<g>
																	<g>
																		<g>
																			<g>
																				<g>
																					<path style="fill:#263238;" d="M95.87,160.783c0.057,1.026,0.974,1.823,2.047,1.782
																						c1.07-0.041,1.893-0.903,1.835-1.929c-0.058-1.026-0.974-1.824-2.045-1.784
																						C96.635,158.893,95.812,159.757,95.87,160.783z"/>
																				</g>
																			</g>
																		</g>
																	</g>
																</g>
															</g>
														</g>
													</g>
												</g>
											</g>
										</g>
									</g>
								</g>
							</g>
						</g>
					</g>
					<g>
						<g>
							<g>
								<g>
									<g>
										<g>
											<g>
												<g>
													<g>
														<g>
															<g>
																<g>
																	<g>
																		<g>
																			<g>
																				<g>
																					<g>
																						<path style="fill:#263238;" d="M92.464,155.475c0.263,0.23,1.63-0.99,3.715-1.176
																							c2.079-0.216,3.707,0.715,3.909,0.439c0.101-0.123-0.186-0.557-0.896-0.98
																							c-0.7-0.422-1.861-0.789-3.159-0.664c-1.297,0.127-2.345,0.705-2.928,1.251
																							C92.51,154.897,92.335,155.373,92.464,155.475z"/>
																					</g>
																				</g>
																			</g>
																		</g>
																	</g>
																</g>
															</g>
														</g>
													</g>
												</g>
											</g>
										</g>
									</g>
								</g>
							</g>
						</g>
					</g>
					<g>
						<g>
							<g>
								<g>
									<g>
										<g>
											<g>
												<g>
													<g>
														<g>
															<g>
																<g>
																	<g>
																		<g>
																			<g>
																				<g>
																					<g>
																						<path style="fill:#263238;" d="M112.341,160.41c0.264,0.23,1.633-0.99,3.716-1.176
																							c2.079-0.215,3.707,0.716,3.91,0.439c0.1-0.123-0.184-0.556-0.897-0.98c-0.7-0.423-1.861-0.789-3.158-0.665
																							c-1.297,0.127-2.345,0.705-2.928,1.251C112.39,159.831,112.213,160.308,112.341,160.41z"/>
																					</g>
																				</g>
																			</g>
																		</g>
																	</g>
																</g>
															</g>
														</g>
													</g>
												</g>
											</g>
										</g>
									</g>
								</g>
							</g>
						</g>
					</g>
					<g>
						<g>
							<g>
								<g>
									<g>
										<g>
											<g>
												<g>
													<g>
														<g>
															<g>
																<g>
																	<g>
																		<g>
																			<g>
																				<g>
																					<path style="fill:#263238;" d="M106.932,170.779c-0.001-0.119-1.317-0.224-3.44-0.299
																						c-0.537-0.006-1.051-0.065-1.174-0.42c-0.161-0.373,0.009-0.967,0.21-1.61
																						c0.382-1.334,0.781-2.732,1.201-4.196c1.655-5.97,2.8-10.858,2.56-10.923
																						c-0.241-0.064-1.778,4.722-3.432,10.691c-0.395,1.471-0.773,2.873-1.132,4.215
																						c-0.146,0.623-0.429,1.341-0.084,2.114c0.18,0.384,0.597,0.637,0.946,0.697
																						c0.351,0.073,0.651,0.051,0.916,0.043C105.623,171.009,106.934,170.898,106.932,170.779z"/>
																				</g>
																			</g>
																		</g>
																	</g>
																</g>
															</g>
														</g>
													</g>
												</g>
											</g>
										</g>
									</g>
								</g>
							</g>
						</g>
					</g>
					<g>
						<g>
							<g>
								<g>
									<g>
										<g>
											<g>
												<g>
													<g>
														<g>
															<g>
																<g>
																	<path style="fill:#263238;" d="M110.597,154.924c0.332,0.506,2.303-0.239,4.759-0.519
																		c2.452-0.329,4.544-0.087,4.743-0.658c0.085-0.271-0.374-0.712-1.281-1.063c-0.899-0.352-2.251-0.568-3.723-0.387
																		c-1.471,0.184-2.73,0.723-3.516,1.284C110.786,154.142,110.448,154.682,110.597,154.924z"/>
																</g>
															</g>
														</g>
													</g>
												</g>
											</g>
										</g>
									</g>
								</g>
							</g>
						</g>
					</g>
					<g>
						<g>
							<g>
								<g>
									<g>
										<g>
											<g>
												<g>
													<g>
														<g>
															<g>
																<g>
																	<path style="fill:#263238;" d="M91.967,150.186c0.47,0.44,2.131-0.182,4.172-0.363
																		c2.035-0.24,3.797,0.028,4.157-0.498c0.156-0.254-0.153-0.708-0.943-1.098c-0.779-0.39-2.053-0.659-3.454-0.515
																		c-1.401,0.145-2.584,0.669-3.257,1.209C91.957,149.463,91.758,149.969,91.967,150.186z"/>
																</g>
															</g>
														</g>
													</g>
												</g>
											</g>
										</g>
									</g>
								</g>
							</g>
						</g>
					</g>
					<g>
						<g>
							<g>
								<g>
									<g>
										<g>
											<g>
												<g>
													<path style="fill:#FFBF9D;" d="M135.792,159.73c0.222-0.121,9.063-3.612,9.62,5.685
														c0.556,9.297-8.893,7.938-8.925,7.673C136.456,172.821,135.792,159.73,135.792,159.73z"/>
												</g>
											</g>
										</g>
									</g>
								</g>
							</g>
						</g>
					</g>
					<g>
						<g>
							<g>
								<g>
									<g>
										<g>
											<g>
												<g>
													<g>
														<path style="fill:#FF9A6C;" d="M139.117,169.395c0.039-0.032,0.169,0.103,0.45,0.213
															c0.274,0.106,0.738,0.163,1.212-0.048c0.96-0.419,1.694-2.028,1.639-3.707c-0.027-0.847-0.253-1.643-0.592-2.292
															c-0.325-0.663-0.793-1.112-1.293-1.17c-0.499-0.084-0.831,0.233-0.929,0.501c-0.109,0.267-0.039,0.449-0.087,0.468
															c-0.024,0.025-0.209-0.144-0.157-0.532c0.027-0.187,0.123-0.413,0.331-0.605c0.212-0.195,0.535-0.307,0.881-0.29
															c0.72,0.007,1.405,0.628,1.778,1.34c0.413,0.713,0.686,1.606,0.716,2.558c0.053,1.877-0.801,3.688-2.122,4.156
															c-0.644,0.21-1.201,0.045-1.496-0.157C139.147,169.618,139.085,169.413,139.117,169.395z"/>
													</g>
												</g>
											</g>
										</g>
									</g>
								</g>
							</g>
						</g>
					</g>
					<g>
						<g>
							<g>
								<g>
									<g>
										<g>
											<g>
												<g>
													<g>
														<g>
															<path style="fill:#263238;" d="M113.556,171.741c-0.321-0.004-0.227,2.133-1.986,3.733
																c-1.756,1.605-4.044,1.47-4.047,1.77c-0.023,0.135,0.526,0.392,1.489,0.374c0.944-0.011,2.308-0.377,3.384-1.356
																c1.073-0.982,1.495-2.244,1.528-3.124C113.964,172.24,113.701,171.722,113.556,171.741z"/>
														</g>
													</g>
												</g>
											</g>
										</g>
									</g>
								</g>
							</g>
						</g>
					</g>
				</g>
				<g>
					<g>
						<g>
							<g>
								<g>
									<g>
										<g>
											<path style="fill:#263238;" d="M69.638,138.462c0.114-0.557,0.485-1.032,0.955-1.35c1.026-0.695,2.258-0.687,3.442-0.779
												c2.947-0.23,5.826-1.165,8.374-2.663c-0.946-0.408-1.837-0.92-2.61-1.601c-1.595-1.406-2.601-3.648-2.037-5.698
												c0.106-0.385,0.301-0.793,0.674-0.934c0.592-0.223,1.158,0.338,1.608,0.782c1.48,1.461,2.8,2.046,4.852,1.71
												c1.275-0.209,2.5-0.573,3.469-1.264c0.038-0.044,0.071-0.093,0.109-0.137c0.453-0.529,0.895-1.034,1.331-1.524
												c0.001-0.002,0.002-0.003,0.003-0.005l-0.001,0.003c3.283-3.685,6.142-6.275,9.161-7.713
												c4.426-2.108,11.97-3.318,16.779-2.37c4.809,0.949,9.297,4.525,10.255,9.333c2.515-2.408,6.501-2.636,9.813-1.536
												l0.079-0.041c3.679,1.06,5.959,4.737,7.249,8.342c0.07,0.197,0.133,0.398,0.201,0.596
												c1.336,1.854,3.093,3.405,5.137,4.432c0.361,0.181,0.775,0.404,0.842,0.802c0.067,0.394-0.248,0.744-0.558,0.996
												c-0.825,0.671-1.805,1.14-2.838,1.391c0.383,0.852,0.822,1.676,1.35,2.456c0.449,0.663,0.983,1.457,0.672,2.195
												c-0.24,0.571-0.93,0.842-1.547,0.791c-0.617-0.052-1.18-0.357-1.723-0.655c0.461,0.936,0.922,1.873,1.383,2.809
												c-1.288,0.307-2.643,0.286-3.932-0.019c-0.553,3.48-0.734,9.874-1.474,12.255c-2.465,0.196-3.081-0.036-4.3,0.455
												c-1.576,0.634-0.786,3.445-2.931,2.765c-1.092-0.346-2.979-4.287-3.403-5.351c-2.814-7.062-4.078-14.735-3.689-22.327
												c-1.589-1.497-3.469-2.685-5.504-3.477l0.17,0.135c-3.883-1.085-8.263-2.118-11.759-0.11
												c-2.712,1.557-4.177,4.562-6.125,7.008c-3.692,4.635-8.034,7.256-13.928,7.876c-0.279,4.137-0.021,10.859,0.015,14.701
												l-3.744-7.463l-0.001,0.031c-0.292-0.433-0.538-0.872-0.777-1.313l-0.081-0.133l-0.001-0.017
												c-0.38-0.708-0.744-1.418-1.212-2.112c-0.012,0.012-0.023,0.023-0.035,0.035c-1.962,1.959-5.192-0.651-3.694-2.984
												c0.297-0.463,0.661-0.881,1.085-1.234c-0.893,0.949-2.281,1.463-3.548,1.158c-1.267-0.305-2.31-1.504-2.282-2.807
												c0.019-0.889,0.603-1.72,1.38-2.119c-1.668,0.233-3.405-0.026-4.917-0.769C70.383,140.528,69.388,139.687,69.638,138.462
												z"/>
										</g>
									</g>
								</g>
							</g>
						</g>
					</g>
					<g>
						<g>
							<g>
								<g>
									<g>
										<g>
											<path style="fill:#455A64;" d="M121.818,126.079c-0.025,0.037,0.592,0.325,1.442,1.164
												c0.842,0.836,1.82,2.32,2.368,4.388c0.278,1.027,0.485,2.183,0.562,3.436c0.083,1.252,0.065,2.6,0.057,4.02
												c-0.004,1.419-0.013,2.92,0.174,4.468c0.093,0.773,0.236,1.556,0.453,2.335c0.219,0.764,0.475,1.593,1.101,2.223
												c0.5,0.514,1.294,0.707,1.96,0.527c0.673-0.162,1.255-0.562,1.667-1.083c0.812-1.076,0.95-2.385,1.097-3.54l-0.283,0.052
												c0.53,0.998,1.072,1.982,1.832,2.748c0.748,0.771,1.748,1.25,2.736,1.278c0.492,0.014,0.98-0.095,1.387-0.333
												c0.416-0.235,0.705-0.61,0.895-0.998c0.18-0.395,0.26-0.821,0.214-1.224c-0.048-0.402-0.229-0.776-0.502-1.031
												l-0.137,0.138c1.123,1.13,2.27,1.704,3.058,2.012c0.398,0.154,0.714,0.241,0.927,0.296
												c0.215,0.049,0.327,0.069,0.33,0.06c0.002-0.009-0.106-0.046-0.315-0.112c-0.208-0.071-0.516-0.173-0.903-0.341
												c-0.767-0.334-1.88-0.927-2.959-2.05l-0.136,0.137c0.488,0.457,0.567,1.307,0.215,2.016
												c-0.178,0.35-0.444,0.684-0.81,0.884c-0.364,0.207-0.809,0.303-1.259,0.286c-0.908-0.034-1.84-0.484-2.542-1.218
												c-0.717-0.732-1.242-1.691-1.767-2.69l-0.222-0.424l-0.061,0.477c-0.147,1.154-0.302,2.412-1.044,3.382
												c-0.369,0.467-0.903,0.828-1.492,0.969c-0.589,0.152-1.23-0.006-1.666-0.446c-0.547-0.545-0.805-1.329-1.019-2.081
												c-0.212-0.759-0.353-1.526-0.448-2.286c-0.188-1.522-0.186-3.012-0.19-4.43c0-1.419,0.008-2.772-0.087-4.04
												c-0.09-1.268-0.312-2.439-0.608-3.479c-0.583-2.093-1.614-3.593-2.497-4.415
												C122.454,126.328,121.818,126.079,121.818,126.079z"/>
										</g>
									</g>
								</g>
							</g>
						</g>
					</g>
					<g>
						<g>
							<g>
								<g>
									<g>
										<g>
											<path style="fill:#455A64;" d="M80.548,141.922c-0.003,0.004,0.036,0.034,0.115,0.086
												c0.096,0.061,0.213,0.136,0.355,0.227c0.155,0.102,0.352,0.22,0.599,0.334c0.243,0.12,0.521,0.268,0.855,0.384
												c1.301,0.522,3.364,0.993,5.888,0.687c2.501-0.297,5.458-1.372,8.023-3.54c2.597-2.123,4.805-5.15,6.551-8.567
												c0.888-1.708,1.59-3.447,2.382-5.062c0.787-1.615,1.673-3.118,2.784-4.33c1.097-1.217,2.4-2.147,3.773-2.622
												c0.684-0.25,1.382-0.34,2.052-0.366c0.674-0.006,1.318,0.09,1.915,0.246c1.197,0.321,2.184,0.91,2.943,1.532
												c0.762,0.628,1.289,1.308,1.659,1.896c0.696,1.212,0.78,2.013,0.828,1.997c0.006-0.001-0.001-0.049-0.02-0.142
												c-0.025-0.112-0.054-0.247-0.09-0.413c-0.089-0.36-0.279-0.878-0.612-1.504c-0.359-0.609-0.883-1.315-1.651-1.971
												c-0.765-0.649-1.767-1.268-2.997-1.613c-0.614-0.168-1.279-0.275-1.977-0.275c-0.694,0.019-1.428,0.109-2.136,0.362
												c-1.427,0.481-2.776,1.434-3.904,2.674c-1.144,1.235-2.051,2.765-2.847,4.391c-0.803,1.626-1.506,3.361-2.386,5.054
												c-1.733,3.392-3.908,6.385-6.455,8.486c-2.517,2.148-5.403,3.22-7.865,3.543c-2.481,0.329-4.517-0.099-5.816-0.58
												C81.206,142.348,80.57,141.881,80.548,141.922z"/>
										</g>
									</g>
								</g>
							</g>
						</g>
					</g>
					<g>
						<g>
							<g>
								<g>
									<g>
										<g>
											<path style="fill:#455A64;" d="M78.94,136.02c-0.01,0.02,0.171,0.129,0.509,0.31c0.335,0.187,0.845,0.412,1.49,0.644
												c0.645,0.238,1.439,0.448,2.334,0.61c0.898,0.146,1.898,0.233,2.949,0.207c1.051-0.037,2.045-0.184,2.932-0.382
												c0.884-0.215,1.664-0.472,2.294-0.747c0.631-0.271,1.126-0.525,1.449-0.732c0.327-0.201,0.501-0.32,0.49-0.339
												c-0.03-0.052-0.757,0.381-2.022,0.862c-0.631,0.245-1.404,0.476-2.274,0.67c-0.874,0.179-1.848,0.314-2.878,0.35
												c-1.029,0.025-2.01-0.052-2.893-0.178c-0.881-0.143-1.666-0.326-2.31-0.534C79.718,136.355,78.966,135.966,78.94,136.02z
												"/>
										</g>
									</g>
								</g>
							</g>
						</g>
					</g>
				</g>
			</g>
			<g>
				<g>
					<g>
						<path style="fill:#FF725E;" d="M180.383,310.842l0.939-4.504c-11.319-5.014-21.597-12.108-30.3-20.912l-50.052-50.635
							l1.297-14.53l24.642-23.074c0,0,11.751-7.792,26.982-1.755c17.298,6.856,24.623,16.566,44.822,40.109
							c8.005,9.33,3.508,1.535,11.331,6.59c0,0-4.907,26.674-14.19,43.205C189.059,297.435,180.383,310.842,180.383,310.842z"/>
					</g>
				</g>
				<g>
					<g>
						<g>
							<path style="fill:#263238;" d="M106.152,240.173c-0.057,0.038-0.79-0.927-1.846-2.574c-1.056-1.646-2.417-3.987-3.729-6.671
								c-1.31-2.686-2.321-5.198-2.969-7.044c-0.65-1.846-0.961-3.016-0.895-3.038c0.076-0.026,0.514,1.099,1.252,2.901
								c0.737,1.803,1.796,4.274,3.098,6.943c1.304,2.666,2.602,5.021,3.571,6.71C105.601,239.092,106.219,240.129,106.152,240.173z
								"/>
						</g>
					</g>
				</g>
			</g>
			<g>
				<g style="opacity:0.3;">
					<path d="M193.301,273.607c0,0,1.473-8.219-1.668-16.391c-3.141-8.173-11.25-19.673-11.25-19.673l-2.788,2.632L193.301,273.607z
						"/>
				</g>
				<g>
					<g>
						<path style="fill:#FFBF9D;" d="M149.993,323.889l18.028-47.155l-9.505-11.867l-17.917-22.019c0,0-12.793-6.642-18.915-16.436
							c-1.913-3.061-2.28-8.23-0.283-12.007c5.597-10.585,17.195-14.782,28.743-11.619l10.157,6.658
							c0,0,33.533,52.553,32.993,62.678c-0.382,7.154-28.657,55.574-28.657,55.574L149.993,323.889z"/>
					</g>
				</g>
				<g>
					<g>
						<path style="fill:#FFBF9D;" d="M151.261,321.887l-20.009,1.724c-2.108,0.182-4.01,1.337-5.142,3.124l-8.952,14.13
							c0,0,3.569,1.653,5.933-0.989c2.432-2.719,6.182-8.194,6.182-8.194l-1.701,15.741c0,0,4.615,0.451,5.391-3.059
							c0.891-4.03,0.959-9.307,0.959-9.307l4.503,14.964c0,0,4.889-1.609,3.319-7.268c-0.992-3.574-2.064-7.247-2.064-7.247
							l5.493,9.738c0,0,3.992-0.353,2.955-3.971c-0.691-2.41-2.811-7.191-2.811-7.191s11.522,0.87,13.812,0.041
							c3.12-1.129,6.31-7.751,6.31-7.751L151.261,321.887z"/>
					</g>
				</g>
				<g>
					<g>
						<g>
							<path style="fill:#FF725E;" d="M133.517,200.046c0,0-16.787,9.025-14.951,21.648c1.836,12.622,16.28,19.195,16.28,19.195
								l18.769,20.122l29.496-25.626l-26.839-33.346"/>
						</g>
					</g>
					<g>
						<g>
							<g>
								<path style="fill:#263238;" d="M156.27,202.037c0.005-0.004,0.052,0.044,0.14,0.144c0.1,0.117,0.226,0.263,0.385,0.448
									c0.351,0.422,0.841,1.012,1.471,1.77c1.294,1.582,3.157,3.863,5.518,6.75c4.741,5.852,11.471,14.161,19.511,24.086
									l0.144,0.178l-0.173,0.15c-8.609,7.492-18.65,16.232-29.327,25.524l-0.146,0.127l-0.197,0.171l-0.178-0.191
									c-6.617-7.102-12.96-13.91-18.757-20.133l0.08,0.058c-3.57-1.776-6.702-4.027-9.327-6.579
									c-2.596-2.564-4.716-5.445-5.898-8.543c-0.248-0.788-0.575-1.54-0.744-2.324c-0.147-0.788-0.364-1.549-0.443-2.324
									c-0.181-1.547-0.081-3.068,0.223-4.481c0.609-2.841,1.979-5.199,3.403-7.118c2.922-3.834,6.033-6.132,8.142-7.627
									c1.069-0.742,1.926-1.261,2.511-1.6c0.279-0.154,0.501-0.276,0.672-0.37c0.153-0.079,0.234-0.114,0.237-0.108
									c0.004,0.007-0.07,0.054-0.216,0.146c-0.165,0.103-0.379,0.237-0.649,0.406c-0.569,0.362-1.409,0.902-2.459,1.663
									c-2.07,1.531-5.135,3.862-7.986,7.677c-1.39,1.909-2.714,4.238-3.288,7.01c-0.287,1.378-0.374,2.855-0.19,4.356
									c0.081,0.751,0.3,1.499,0.446,2.267c0.169,0.765,0.495,1.5,0.739,2.269c2.428,6.038,8.091,11.322,15.036,14.818l0.05,0.025
									l0.031,0.033c5.804,6.215,12.156,13.017,18.78,20.111l-0.375-0.02l0.146-0.127c10.693-9.274,20.749-17.997,29.37-25.474
									l-0.029,0.328c-7.977-9.975-14.656-18.326-19.36-24.208c-2.316-2.923-4.145-5.231-5.415-6.833
									c-0.606-0.777-1.077-1.382-1.414-1.815c-0.147-0.195-0.263-0.348-0.356-0.472
									C156.303,202.098,156.265,202.041,156.27,202.037z"/>
							</g>
						</g>
					</g>
				</g>
			</g>
			<g>
				<g>
					<path style="fill:#FF9A6C;" d="M135.622,325.751c-0.001,0.086-0.656,0.07-1.637,0.348c-0.972,0.267-2.282,0.907-3.269,2.088
						c-0.984,1.184-1.377,2.588-1.464,3.592c-0.097,1.015,0.038,1.656-0.047,1.673c-0.053,0.018-0.324-0.608-0.321-1.692
						c-0.005-1.066,0.356-2.612,1.432-3.906c1.079-1.291,2.534-1.925,3.584-2.112C134.965,325.542,135.63,325.696,135.622,325.751z"
						/>
				</g>
			</g>
			<g>
				<g>
					<path style="fill:#FF9A6C;" d="M137.462,328.102c0.035,0.065-0.396,0.358-1.069,0.849c-0.334,0.247-0.732,0.542-1.136,0.9
						c-0.393,0.365-0.833,0.771-1.013,1.309c-0.381,1.14-0.302,2.324-0.237,3.132c0.077,0.822,0.21,1.322,0.136,1.348
						c-0.06,0.025-0.324-0.449-0.5-1.292c-0.158-0.835-0.321-2.051,0.111-3.365c0.243-0.694,0.767-1.136,1.193-1.498
						c0.446-0.359,0.877-0.629,1.245-0.843C136.932,328.22,137.429,328.039,137.462,328.102z"/>
				</g>
			</g>
			<g>
				<g>
					<path style="fill:#FF9A6C;" d="M145.832,329.98c0.018,0.071-0.603,0.252-1.609,0.366c-0.967,0.139-2.464,0.224-3.366,1.382
						c-0.879,1.152-1.055,2.603-0.871,3.528c0.187,0.955,0.509,1.513,0.428,1.552c-0.042,0.029-0.485-0.456-0.787-1.471
						c-0.293-1.008-0.187-2.607,0.823-3.934c0.511-0.663,1.268-1.05,1.942-1.211c0.681-0.171,1.295-0.189,1.8-0.212
						C145.205,329.959,145.816,329.911,145.832,329.98z"/>
				</g>
			</g>
			<g>
				<g>
					<path style="fill:#FF9A6C;" d="M161.379,325.747c-0.052,0.134-2.453-0.675-5.369-1.789c-1.459-0.557-2.77-1.084-3.712-1.481
						c-0.942-0.395-1.519-0.668-1.497-0.697c0.048-0.208,2.482,0.58,5.395,1.691C159.113,324.586,161.431,325.613,161.379,325.747z"
						/>
				</g>
			</g>
		</g>
		<g style="opacity:0.3;">
			<path d="M206.344,236.703c0,0-3.594,31.411-10.626,44.208c-7.031,12.797-12.819,23.761-12.819,23.761l-0.505,2.42
				c0,0,14.284-22.528,16.867-28.134c2.583-5.607,7.288-16.872,9.881-27.806c2.579-10.878,2.988-12.772,2.913-12.772
				C212.057,238.38,207.97,235.385,206.344,236.703z"/>
		</g>
	</g>
</g>
</svg>
