<?xml version="1.0" encoding="utf-8"?><svg version="1.1" id="Layer_1" xmlns="http://www.w3.org/2000/svg" xmlns:xlink="http://www.w3.org/1999/xlink" x="0px" y="0px" viewBox="0 0 91.47 122.88" style="enable-background:new 0 0 91.47 122.88" xml:space="preserve"><style type="text/css"><![CDATA[
	.st0{fill:#BE360D;}
]]></style><g><path class="st0" d="M2.94,0h88.53v91.82H0V0H2.94L2.94,0z M91.46,108.73h-5.65v-1.97c0-1.24-0.05-2.02-0.16-2.33 c-0.11-0.32-0.36-0.47-0.75-0.47c-0.34,0-0.57,0.13-0.69,0.4c-0.13,0.27-0.18,0.96-0.18,2.06v10.41c0,0.97,0.06,1.61,0.18,1.92 c0.12,0.31,0.37,0.46,0.73,0.46c0.4,0,0.67-0.17,0.82-0.52c0.14-0.35,0.21-1.03,0.21-2.04v-2.57h-1.1v-3.29h6.58v11.63h-3.55 l-0.52-1.55c-0.38,0.67-0.87,1.17-1.45,1.51c-0.58,0.34-1.28,0.51-2.07,0.51c-0.95,0-1.83-0.23-2.66-0.69 c-0.82-0.46-1.45-1.03-1.87-1.71c-0.43-0.68-0.7-1.39-0.8-2.13c-0.11-0.75-0.16-1.87-0.16-3.36v-6.45c0-2.07,0.11-3.58,0.33-4.51 c0.22-0.94,0.86-1.8,1.92-2.58c1.05-0.78,2.42-1.17,4.1-1.17c1.65,0,3.02,0.34,4.11,1.02c1.09,0.68,1.8,1.49,2.13,2.42 c0.33,0.94,0.49,2.29,0.49,4.07V108.73L91.46,108.73z M67.14,100.71h9.41v4.33h-3.76v4.14h3.51v4.12h-3.51v4.77h4.14v4.33h-9.79 V100.71L67.14,100.71z M66.17,100.71l-2.86,21.7h-8.54l-3.27-21.7h5.95c0.67,5.99,1.16,11.05,1.47,15.18 c0.3-4.18,0.61-7.9,0.93-11.14l0.38-4.05H66.17L66.17,100.71z M51.15,111.66v3.73h-7.08v-3.73H51.15L51.15,111.66z M42.44,100.71 v21.7H37.5l-2.94-9.87v9.87h-4.72v-21.7h4.72l3.15,9.77v-9.77H42.44L42.44,100.71z M27.73,113.43c0,2.18-0.05,3.72-0.16,4.63 c-0.1,0.91-0.42,1.74-0.96,2.49c-0.54,0.75-1.27,1.33-2.19,1.73s-1.99,0.6-3.21,0.6c-1.16,0-2.2-0.19-3.12-0.57 c-0.92-0.38-1.67-0.95-2.23-1.71c-0.56-0.76-0.9-1.59-1.01-2.48c-0.11-0.9-0.16-2.46-0.16-4.69v-3.71c0-2.18,0.05-3.72,0.16-4.63 c0.1-0.91,0.42-1.74,0.96-2.49s1.27-1.33,2.19-1.73s1.99-0.6,3.21-0.6c1.16,0,2.2,0.19,3.12,0.57c0.92,0.38,1.67,0.95,2.23,1.71 c0.56,0.76,0.9,1.59,1.01,2.48c0.1,0.9,0.16,2.46,0.16,4.69V113.43L27.73,113.43z M22.08,106.31c0-1.01-0.05-1.65-0.16-1.93 c-0.11-0.28-0.33-0.42-0.67-0.42c-0.29,0-0.51,0.11-0.66,0.34c-0.15,0.22-0.23,0.9-0.23,2.01v10.13c0,1.26,0.05,2.03,0.15,2.33 c0.1,0.3,0.33,0.44,0.7,0.44c0.38,0,0.62-0.17,0.72-0.51c0.11-0.34,0.16-1.15,0.16-2.42V106.31L22.08,106.31z M12.6,100.71v21.7 H7.66l-2.94-9.87v9.87H0.01v-21.7h4.72l3.15,9.77v-9.77H12.6L12.6,100.71z M45.73,19.96c14.33,0,25.95,11.62,25.95,25.95 c0,14.33-11.62,25.94-25.95,25.94c-14.33,0-25.95-11.62-25.95-25.94C19.79,31.58,31.4,19.96,45.73,19.96L45.73,19.96z M85.59,5.88 H5.88v80.06h79.71V5.88L85.59,5.88z"/></g></svg>